<svg width="26" height="31" viewBox="0 0 26 31" fill="none" xmlns="http://www.w3.org/2000/svg">
<path d="M22.6387 11.7577C22.1795 11.7577 21.7489 11.8828 21.379 12.1008C21.2398 10.8594 20.1842 9.89182 18.9069 9.89182C18.2995 9.89182 17.7413 10.1117 17.3077 10.4779C16.8722 9.75456 16.0796 9.26984 15.1752 9.26984C14.7227 9.26984 14.2975 9.3913 13.9313 9.60389V3.05034C13.9313 1.67823 12.8155 0.5625 11.4435 0.5625C10.0714 0.5625 8.95564 1.67823 8.95564 3.05034V19.6961C8.95564 20.0095 8.74911 20.1705 8.66042 20.2251C8.57173 20.2798 8.33302 20.3922 8.05547 20.2525L4.06136 18.2554C3.69751 18.0732 3.29 17.9772 2.88306 17.9772C1.4302 17.9772 0.248291 19.1592 0.248291 20.6121V21.087C0.248291 21.2595 0.319952 21.4241 0.445664 21.5419L7.62428 28.2419C9.12689 29.6437 11.0863 30.4163 13.1411 30.4163H17.041C21.4991 30.4163 25.1264 26.7891 25.1264 22.3309V14.2455C25.1264 12.8734 24.0107 11.7577 22.6387 11.7577ZM23.8825 22.3309C23.8825 26.1033 20.8135 29.1724 17.0411 29.1724H13.1411C11.4028 29.1724 9.74466 28.5188 8.47342 27.332L1.49218 20.8167V20.6121C1.49218 19.8449 2.11596 19.2211 2.88306 19.2211C3.09746 19.2211 3.31309 19.2722 3.50504 19.3681L7.49915 21.3652C8.08165 21.6573 8.76065 21.6251 9.31458 21.2838C9.86851 20.9412 10.1995 20.3478 10.1995 19.6961V3.05034C10.1995 2.36463 10.7577 1.80645 11.4434 1.80645C12.1291 1.80645 12.6873 2.36463 12.6873 3.05034V12.3797C12.6873 12.7234 12.9655 13.0016 13.3093 13.0016C13.6531 13.0016 13.9313 12.7234 13.9313 12.3797V11.7577C13.9313 11.072 14.4894 10.5138 15.1751 10.5138C15.8608 10.5138 16.419 11.072 16.419 11.7577V12.3797C16.419 12.3809 16.419 12.3821 16.419 12.3833V12.3839C16.4215 12.7252 16.699 13.0016 17.041 13.0016C17.3848 13.0016 17.663 12.7234 17.663 12.3797V12.3699C17.6678 11.6891 18.2254 11.1357 18.9069 11.1357C19.5926 11.1357 20.1508 11.6939 20.1508 12.3796V14.2455C20.1508 14.5892 20.4289 14.8674 20.7727 14.8674C21.1165 14.8674 21.3947 14.5892 21.3947 14.2455C21.3947 13.5598 21.9529 13.0016 22.6386 13.0016C23.3243 13.0016 23.8825 13.5598 23.8825 14.2455V22.3309Z" fill="black"/>
</svg>
