<svg width="38" height="38" viewBox="0 0 38 38" fill="none" xmlns="http://www.w3.org/2000/svg">
<g clip-path="url(#clip0)">
<path d="M37.5389 11.4436C37.4515 9.4608 37.1308 8.09763 36.6715 6.91643C36.1977 5.66262 35.4687 4.54008 34.5136 3.60691C33.5804 2.65921 32.4505 1.92282 31.2112 1.45637C30.0231 0.997049 28.6671 0.676405 26.6843 0.588982C24.6867 0.494156 24.0525 0.472229 18.986 0.472229C13.9195 0.472229 13.2853 0.494156 11.2951 0.581578C9.31229 0.669001 7.94913 0.98993 6.76821 1.44897C5.51412 1.92282 4.39158 2.65181 3.45841 3.60691C2.51071 4.54008 1.7746 5.67002 1.30787 6.90931C0.84855 8.09763 0.527906 9.45339 0.440483 11.4362C0.345657 13.4338 0.32373 14.068 0.32373 19.1345C0.32373 24.201 0.345657 24.8352 0.43308 26.8254C0.520502 28.8082 0.84143 30.1714 1.30075 31.3526C1.7746 32.6064 2.51071 33.7289 3.45841 34.6621C4.39158 35.6098 5.52152 36.3462 6.76081 36.8126C7.94913 37.272 9.30489 37.5926 11.288 37.68C13.2779 37.7677 13.9124 37.7894 18.9789 37.7894C24.0454 37.7894 24.6796 37.7677 26.6698 37.68C28.6526 37.5926 30.0157 37.272 31.1967 36.8126C33.7046 35.843 35.6874 33.8602 36.657 31.3526C37.116 30.1643 37.437 28.8082 37.5244 26.8254C37.6118 24.8352 37.6337 24.201 37.6337 19.1345C37.6337 14.068 37.6263 13.4338 37.5389 11.4436ZM34.1784 26.6796C34.0981 28.5021 33.792 29.4862 33.5368 30.1423C32.9098 31.7681 31.6195 33.0583 29.9938 33.6854C29.3377 33.9405 28.3465 34.2466 26.5311 34.3267C24.5628 34.4144 23.9725 34.436 18.9934 34.436C14.0143 34.436 13.4166 34.4144 11.4554 34.3267C9.63293 34.2466 8.64879 33.9405 7.9927 33.6854C7.18368 33.3864 6.44729 32.9125 5.84957 32.2929C5.22992 31.6877 4.75607 30.9588 4.45707 30.1497C4.20192 29.4936 3.8958 28.5021 3.81579 26.687C3.72808 24.7187 3.70644 24.1281 3.70644 19.149C3.70644 14.1699 3.72808 13.5722 3.81579 11.6113C3.8958 9.78885 4.20192 8.8047 4.45707 8.14861C4.75607 7.33931 5.22992 6.60319 5.85697 6.00519C6.46181 5.38554 7.1908 4.9117 8.0001 4.61298C8.6562 4.35783 9.64774 4.05171 11.4628 3.97141C13.4311 3.88398 14.0217 3.86206 19.0005 3.86206C23.987 3.86206 24.5773 3.88398 26.5385 3.97141C28.361 4.05171 29.3451 4.35783 30.0012 4.61298C30.8102 4.9117 31.5466 5.38554 32.1443 6.00519C32.764 6.61031 33.2378 7.33931 33.5368 8.14861C33.792 8.8047 34.0981 9.79596 34.1784 11.6113C34.2658 13.5796 34.2878 14.1699 34.2878 19.149C34.2878 24.1281 34.2658 24.7113 34.1784 26.6796Z" fill="white"/>
<path d="M18.9862 9.54816C13.6939 9.54816 9.3999 13.8418 9.3999 19.1344C9.3999 24.4271 13.6939 28.7207 18.9862 28.7207C24.2788 28.7207 28.5725 24.4271 28.5725 19.1344C28.5725 13.8418 24.2788 9.54816 18.9862 9.54816ZM18.9862 25.3528C15.5528 25.3528 12.7678 22.5681 12.7678 19.1344C12.7678 15.7008 15.5528 12.9161 18.9862 12.9161C22.4199 12.9161 25.2046 15.7008 25.2046 19.1344C25.2046 22.5681 22.4199 25.3528 18.9862 25.3528Z" fill="white"/>
<path d="M31.1901 9.16918C31.1901 10.4051 30.188 11.4071 28.9518 11.4071C27.716 11.4071 26.7139 10.4051 26.7139 9.16918C26.7139 7.93301 27.716 6.93121 28.9518 6.93121C30.188 6.93121 31.1901 7.93301 31.1901 9.16918Z" fill="white"/>
</g>
<defs>
<clipPath id="clip0">
<rect width="37.3173" height="37.3173" fill="white" transform="translate(0.258301 0.472229)"/>
</clipPath>
</defs>
</svg>
