<svg width="38" height="38" viewBox="0 0 38 38" fill="none" xmlns="http://www.w3.org/2000/svg">
<g clip-path="url(#clip0)">
<path d="M37.8366 37.7896V37.788H37.8459V24.1019C37.8459 17.4066 36.4045 12.249 28.5772 12.249C24.8144 12.249 22.2892 14.3139 21.2583 16.2715H21.1495V12.8741H13.728V37.788H21.4558V25.4516C21.4558 22.2034 22.0716 19.0625 26.094 19.0625C30.0575 19.0625 30.1165 22.7694 30.1165 25.6599V37.7896H37.8366Z" fill="#AFB1B8"/>
<path d="M1.14404 12.8755H8.88116V37.7894H1.14404V12.8755Z" fill="#AFB1B8"/>
<path d="M5.0095 0.472229C2.53568 0.472229 0.52832 2.47959 0.52832 4.95341C0.52832 7.42724 2.53568 9.47658 5.0095 9.47658C7.48333 9.47658 9.49068 7.42724 9.49068 4.95341C9.48913 2.47959 7.48177 0.472229 5.0095 0.472229V0.472229Z" fill="#AFB1B8"/>
</g>
<defs>
<clipPath id="clip0">
<rect width="37.3173" height="37.3173" fill="white" transform="translate(0.52832 0.472229)"/>
</clipPath>
</defs>
</svg>
