<svg width="38" height="38" fill="none" xmlns="http://www.w3.org/2000/svg"><g clip-path="url(#clip0)" fill="#fff"><path d="M37.539 11.444c-.087-1.983-.408-3.346-.867-4.528a9.106 9.106 0 00-2.158-3.31 9.184 9.184 0 00-3.303-2.15C30.023.997 28.667.676 26.684.59 24.687.494 24.052.472 18.986.472c-5.067 0-5.7.022-7.69.11-1.984.087-3.347.408-4.528.867a9.105 9.105 0 00-3.31 2.158 9.188 9.188 0 00-2.15 3.302C.848 8.098.528 9.453.44 11.436c-.094 1.998-.116 2.632-.116 7.698 0 5.067.022 5.701.11 7.691.087 1.983.407 3.346.867 4.528a9.202 9.202 0 002.157 3.31 9.183 9.183 0 003.303 2.15c1.188.459 2.544.78 4.527.867 1.99.088 2.624.11 7.69.11 5.067 0 5.702-.022 7.692-.11 1.983-.087 3.346-.408 4.527-.867a9.545 9.545 0 005.46-5.46c.459-1.189.78-2.545.867-4.528.088-1.99.11-2.624.11-7.69 0-5.067-.008-5.701-.095-7.691zm-3.36 15.236c-.08 1.822-.387 2.806-.642 3.462a6.19 6.19 0 01-3.543 3.543c-.656.255-1.648.562-3.463.642-1.968.087-2.558.109-7.538.109-4.979 0-5.576-.022-7.538-.11-1.822-.08-2.806-.386-3.462-.64a5.743 5.743 0 01-2.143-1.393 5.802 5.802 0 01-1.393-2.143c-.255-.656-.561-1.648-.641-3.463-.088-1.968-.11-2.559-.11-7.538 0-4.98.022-5.577.11-7.538.08-1.822.386-2.806.641-3.462a5.672 5.672 0 011.4-2.144A5.793 5.793 0 018 4.613c.656-.255 1.648-.561 3.463-.642 1.968-.087 2.559-.109 7.537-.109 4.987 0 5.577.022 7.538.11 1.823.08 2.807.386 3.463.641a5.738 5.738 0 012.143 1.392 5.8 5.8 0 011.393 2.144c.255.656.561 1.647.641 3.462.088 1.969.11 2.559.11 7.538 0 4.98-.022 5.562-.11 7.53z"/><path d="M18.986 9.548c-5.292 0-9.586 4.294-9.586 9.586 0 5.293 4.294 9.587 9.586 9.587 5.293 0 9.587-4.294 9.587-9.587 0-5.292-4.294-9.586-9.587-9.586zm0 15.805a6.22 6.22 0 010-12.437 6.22 6.22 0 010 12.437zM31.19 9.17a2.238 2.238 0 11-4.476-.001 2.238 2.238 0 014.476 0z"/></g><defs><clipPath id="clip0"><path fill="#fff" transform="translate(.258 .472)" d="M0 0h37.317v37.317H0z"/></clipPath></defs></svg>