<svg width="38" height="38" fill="none" xmlns="http://www.w3.org/2000/svg"><g clip-path="url(#clip0)" fill="#AFB1B8"><path d="M37.837 37.79v-.002h.009V24.102c0-6.695-1.441-11.853-9.269-11.853-3.763 0-6.288 2.065-7.319 4.022h-.108v-3.397h-7.422v24.914h7.728V25.452c0-3.249.616-6.39 4.638-6.39 3.963 0 4.022 3.707 4.022 6.598v12.13h7.72zM1.144 12.876h7.737v24.913H1.144V12.876zM5.01.472A4.483 4.483 0 00.527 4.953c0 2.474 2.008 4.524 4.482 4.524 2.473 0 4.48-2.05 4.48-4.524A4.485 4.485 0 005.01.473z"/></g><defs><clipPath id="clip0"><path fill="#fff" transform="translate(.528 .472)" d="M0 0h37.317v37.317H0z"/></clipPath></defs></svg>