<svg aria-hidden="true" style="position: absolute; width: 0; height: 0; overflow: hidden;" version="1.1" xmlns="http://www.w3.org/2000/svg" xmlns:xlink="http://www.w3.org/1999/xlink">
<defs>
<symbol id="icon-icon-send" viewBox="0 0 32 32">
<path d="M32 0l-32 18 10.227 3.787 15.773-14.787-11.997 16.187 0.009 0.003-0.012-0.003v8.813l5.735-6.691 7.267 2.691 4.999-28z"></path>
</symbol>
<symbol id="icon-smartphone" viewBox="0 0 21 32">
<path d="M18.133 0h-14.933c-1.765 0-3.2 1.34-3.2 2.987v25.889c0 1.647 1.435 2.987 3.2 2.987h14.933c1.765 0 3.2-1.34 3.2-2.987v-25.889c0-1.647-1.435-2.987-3.2-2.987zM3.2 1.991h14.933c0.589 0 1.067 0.446 1.067 0.996v20.91h-17.067v-20.91c0-0.549 0.478-0.996 1.067-0.996zM18.133 29.872h-14.933c-0.589 0-1.067-0.446-1.067-0.996v-2.987h17.067v2.987c0 0.55-0.478 0.996-1.067 0.996z"></path>
<path d="M5.021 27.176c0.417 0.389 0.417 1.020 0 1.409s-1.092 0.389-1.508 0c-0.417-0.389-0.417-1.020 0-1.409s1.092-0.389 1.508 0z"></path>
</symbol>
<symbol id="icon-envelope" viewBox="0 0 43 32">
<path d="M38.667 0h-34.667c-2.205 0-4 1.675-4 3.733v22.405c0 2.059 1.795 3.733 4 3.733h34.667c2.205 0 4-1.675 4-3.733v-22.405c0-2.059-1.795-3.733-4-3.733zM38.667 2.488c0.181 0 0.355 0.037 0.512 0.099l-17.845 14.437-17.845-14.437c0.152-0.062 0.327-0.098 0.512-0.099h34.667zM38.667 27.381h-34.667c-0.736 0-1.333-0.557-1.333-1.243v-20.923l17.792 14.395c0.235 0.189 0.537 0.304 0.866 0.304 0.003 0 0.006 0 0.009-0h-0c0.002 0 0.005 0 0.008 0 0.329 0 0.631-0.115 0.869-0.306l-0.003 0.002 17.792-14.395v20.923c0 0.685-0.597 1.243-1.333 1.243z"></path>
</symbol>
<symbol id="icon-facebook" viewBox="0 0 33 32">
<path d="M21.596 5.615h2.869v-4.996c-0.495-0.067-2.198-0.221-4.179-0.221-4.136 0-6.97 2.602-6.97 7.384v4.401h-4.564v5.587h4.564v14.055h5.597v-14.054h4.379l0.696-5.586h-5.076v-3.848c0.002-1.614 0.436-2.72 2.685-2.72z"></path>
</symbol>
<symbol id="icon-instagram" viewBox="0 0 32 32">
<path d="M31.612 9.637c-0.073-1.67-0.344-2.818-0.73-3.813-0.416-1.091-1.035-2.022-1.816-2.786l-0.001-0.001c-0.766-0.778-1.693-1.393-2.729-1.793l-0.053-0.018c-1-0.387-2.142-0.657-3.812-0.729-1.682-0.081-2.216-0.099-6.483-0.099s-4.8 0.019-6.476 0.093c-1.671 0.073-2.819 0.344-3.813 0.73-1.091 0.416-2.022 1.035-2.786 1.816l-0.001 0.001c-0.777 0.766-1.393 1.693-1.793 2.728l-0.018 0.053c-0.387 1.001-0.657 2.142-0.731 3.812-0.079 1.683-0.098 2.216-0.098 6.483s0.019 4.801 0.093 6.477c0.073 1.67 0.343 2.818 0.73 3.813 0.419 1.090 1.036 2.020 1.815 2.786l0.001 0.001c0.766 0.778 1.693 1.393 2.729 1.793l0.053 0.018c1 0.387 2.142 0.657 3.812 0.73 1.676 0.074 2.21 0.093 6.476 0.093s4.802-0.019 6.477-0.093c1.67-0.073 2.818-0.344 3.812-0.73 2.118-0.835 3.763-2.48 4.579-4.543l0.019-0.054c0.387-1.001 0.657-2.143 0.73-3.813 0.074-1.676 0.093-2.21 0.093-6.476s-0.007-4.801-0.080-6.477zM28.782 22.467c-0.067 1.534-0.326 2.363-0.541 2.915-0.541 1.375-1.609 2.442-2.948 2.971l-0.035 0.012c-0.552 0.215-1.388 0.473-2.916 0.541-1.657 0.073-2.154 0.092-6.348 0.092s-4.696-0.019-6.348-0.093c-1.534-0.067-2.363-0.325-2.915-0.539-0.708-0.264-1.311-0.664-1.803-1.172l-0.001-0.001c-0.507-0.495-0.907-1.097-1.162-1.771l-0.011-0.034c-0.215-0.552-0.472-1.388-0.54-2.916-0.074-1.657-0.093-2.155-0.093-6.348s0.019-4.696 0.093-6.348c0.067-1.534 0.325-2.363 0.54-2.915 0.264-0.709 0.666-1.313 1.177-1.804l0.002-0.002c0.495-0.507 1.097-0.907 1.771-1.161l0.034-0.011c0.552-0.215 1.388-0.472 2.916-0.541 1.657-0.073 2.155-0.092 6.347-0.092 4.2 0 4.696 0.019 6.348 0.093 1.535 0.067 2.364 0.325 2.916 0.54 0.708 0.264 1.311 0.664 1.803 1.171l0.001 0.001c0.508 0.495 0.907 1.098 1.162 1.772l0.011 0.034c0.215 0.552 0.472 1.387 0.54 2.915 0.074 1.658 0.093 2.155 0.093 6.348s-0.019 4.684-0.093 6.341z"></path>
<path d="M15.988 8.040c-4.456 0-8.072 3.616-8.072 8.072s3.616 8.073 8.072 8.073c4.457 0 8.073-3.616 8.073-8.073s-3.616-8.072-8.073-8.072zM15.988 21.35c-2.843-0.064-5.123-2.384-5.123-5.237s2.28-5.172 5.117-5.237l0.006-0c2.843 0.064 5.123 2.384 5.123 5.237s-2.28 5.172-5.117 5.237l-0.006 0zM26.265 7.722c-0 1.041-0.844 1.884-1.885 1.884s-1.885-0.844-1.885-1.885c0-0 0-0 0-0v0c0-1.041 0.844-1.885 1.885-1.885s1.885 0.844 1.885 1.885v0z"></path>
</symbol>
<symbol id="icon-linkedin" viewBox="0 0 32 32">
<path d="M31.863 31.823v-0.002h0.008v-11.525c0-5.638-1.213-9.981-7.805-9.981-3.169 0-5.295 1.739-6.163 3.387h-0.091v-2.861h-6.25v20.98h6.508v-10.388c0-2.736 0.519-5.381 3.906-5.381 3.337 0 3.387 3.122 3.387 5.556v10.215h6.501zM0.963 10.843h6.515v20.979h-6.515v-20.979zM4.219 0.397c-2.084 0-3.774 1.689-3.775 3.773v0c0 2.083 1.691 3.81 3.774 3.81s3.773-1.726 3.773-3.81c-0.002-2.082-1.69-3.77-3.771-3.773h-0z"></path>
</symbol>
<symbol id="icon-twitter" viewBox="0 0 32 32">
<path d="M31.438 6.366c-1.080 0.485-2.333 0.842-3.645 1.010l-0.067 0.007c1.335-0.802 2.338-2.041 2.821-3.515l0.013-0.045c-1.176 0.71-2.544 1.251-4.002 1.546l-0.083 0.014c-1.181-1.256-2.853-2.039-4.707-2.039h-0c-3.566 0-6.438 2.895-6.438 6.444 0 0.511 0.044 1.002 0.15 1.469-5.356-0.261-10.095-2.829-13.28-6.739-0.552 0.933-0.879 2.056-0.881 3.256v0c0.002 2.222 1.127 4.181 2.839 5.34l0.023 0.014c-1.073-0.029-2.071-0.32-2.943-0.81l0.032 0.017v0.071c0 3.131 2.233 5.731 5.162 6.33-0.492 0.135-1.056 0.212-1.639 0.212-0.018 0-0.035-0-0.053-0l0.003 0c-0.413 0-0.829-0.024-1.219-0.109 0.834 2.552 3.203 4.427 6.019 4.488-2.175 1.713-4.954 2.748-7.974 2.748-0.005 0-0.010 0-0.015 0h0.001c-0.528 0-1.035-0.024-1.541-0.088 2.854 1.84 6.236 2.891 9.883 2.891 11.855 0 18.336-9.821 18.336-18.333 0-0.285-0.009-0.56-0.024-0.833 1.279-0.907 2.354-2.040 3.229-3.345z"></path>
</symbol>
</defs>
</svg>
