<svg width="38" height="38" fill="none" xmlns="http://www.w3.org/2000/svg"><g clip-path="url(#clip0)"><path d="M37.333 7.56a15.95 15.95 0 01-4.408 1.208A7.607 7.607 0 0036.29 4.54a15.289 15.289 0 01-4.85 1.852 7.666 7.666 0 00-5.59-2.421c-4.235 0-7.645 3.438-7.645 7.652 0 .607.052 1.19.178 1.745-6.36-.31-11.988-3.359-15.77-8.003a7.702 7.702 0 00-1.046 3.867 7.661 7.661 0 003.398 6.358 7.556 7.556 0 01-3.457-.942v.084c0 3.718 2.652 6.806 6.13 7.517a7.638 7.638 0 01-2.006.252c-.49 0-.984-.028-1.448-.13.99 3.03 3.804 5.257 7.148 5.329a15.372 15.372 0 01-9.486 3.263c-.627 0-1.229-.028-1.83-.105 3.389 2.185 7.405 3.433 11.736 3.433 14.078 0 21.774-11.662 21.774-21.77 0-.338-.011-.665-.028-.989 1.519-1.077 2.795-2.423 3.835-3.972z" fill="#AFB1B8"/></g><defs><clipPath id="clip0"><path fill="#fff" transform="translate(.016 .472)" d="M0 0h37.317v37.317H0z"/></clipPath></defs></svg>