<svg width="31" height="24" viewBox="0 0 31 24" fill="none" xmlns="http://www.w3.org/2000/svg">
<path d="M27.9431 0.753906H3.68699C2.14363 0.753906 0.888184 2.02404 0.888184 3.58544V20.5745C0.888184 22.1359 2.14363 23.4061 3.68699 23.4061H27.9431C29.4865 23.4061 30.7419 22.1359 30.7419 20.5745V3.58544C30.7419 2.02404 29.4865 0.753906 27.9431 0.753906ZM27.9431 2.64157C28.0699 2.64157 28.1905 2.66818 28.3007 2.71465L15.8151 13.6626L3.32935 2.71465C3.43959 2.66824 3.56018 2.64157 3.68693 2.64157H27.9431ZM27.9431 21.5183H3.68699C3.17225 21.5183 2.75404 21.0953 2.75404 20.5745V4.70899L15.2037 15.6249C15.3796 15.7788 15.5973 15.8553 15.8151 15.8553C16.0328 15.8553 16.2505 15.7788 16.4264 15.6249L28.8761 4.70899V20.5745C28.876 21.0953 28.4579 21.5183 27.9431 21.5183Z" fill="#757575"/>
</svg>
