<svg width="19" height="31" viewBox="0 0 19 31" fill="none" xmlns="http://www.w3.org/2000/svg">
<path d="M16.1284 0.731445H3.06736C1.524 0.731445 0.268555 2.00157 0.268555 3.56296V28.1028C0.268555 29.6642 1.524 30.9343 3.06736 30.9343H16.1284C17.6718 30.9343 18.9272 29.6642 18.9272 28.1028V3.56296C18.9272 2.00157 17.6718 0.731445 16.1284 0.731445ZM3.06736 2.61912H16.1284C16.6432 2.61912 17.0614 3.04219 17.0614 3.56296V23.3836H2.13442V3.56296C2.13442 3.04219 2.5526 2.61912 3.06736 2.61912ZM16.1284 29.0466H3.06736C2.5526 29.0466 2.13442 28.6236 2.13442 28.1028V25.2713H17.0614V28.1028C17.0614 28.6236 16.6432 29.0466 16.1284 29.0466Z" fill="#757575"/>
</svg>
