<svg width="266" height="38" viewBox="0 0 266 38" fill="none" xmlns="http://www.w3.org/2000/svg">
<path d="M46.3358 14.4908H51.1827V17.3224H46.3358V22.8453H43.3257V17.3224H38.4533V14.4908H43.3257V9.32508H46.3358V14.4908ZM57.6489 14.0061H59.5367C60.489 13.9976 61.2416 13.751 61.7943 13.2664C62.3555 12.7817 62.6361 12.0801 62.6361 11.1618C62.6361 10.2774 62.4023 9.59293 61.9346 9.10825C61.4754 8.61506 60.7696 8.36846 59.8173 8.36846C58.9839 8.36846 58.2994 8.6108 57.7637 9.09549C57.228 9.57167 56.9602 10.1967 56.9602 10.9705H53.8607C53.8607 10.0181 54.1116 9.15076 54.6133 8.36846C55.1234 7.58616 55.8292 6.97817 56.7306 6.54451C57.6404 6.10233 58.6566 5.88125 59.779 5.88125C61.6327 5.88125 63.0868 6.34893 64.1412 7.28429C65.2041 8.21115 65.7355 9.50365 65.7355 11.1618C65.7355 11.9951 65.4677 12.7817 64.932 13.5214C64.4048 14.2527 63.7203 14.8054 62.8784 15.1796C63.8988 15.5282 64.6726 16.0767 65.1998 16.825C65.7355 17.5733 66.0034 18.4661 66.0034 19.5035C66.0034 21.1702 65.4294 22.4967 64.2815 23.483C63.142 24.4694 61.6412 24.9626 59.779 24.9626C57.9933 24.9626 56.5307 24.4864 55.3913 23.5341C54.2519 22.5817 53.6821 21.3147 53.6821 19.7331H56.7816C56.7816 20.5494 57.0537 21.2127 57.5979 21.7229C58.1506 22.2331 58.8904 22.4882 59.8173 22.4882C60.7781 22.4882 61.5349 22.2331 62.0876 21.7229C62.6404 21.2127 62.9167 20.4729 62.9167 19.5035C62.9167 18.5256 62.6276 17.7731 62.0494 17.2459C61.4712 16.7187 60.6123 16.4551 59.4729 16.4551H57.6489V14.0061ZM81.1302 11.0342C81.1302 11.9441 80.8964 12.7562 80.4287 13.4704C79.961 14.1762 79.3233 14.7332 78.5155 15.1413C79.4848 15.592 80.2289 16.2085 80.7476 16.9908C81.2748 17.7731 81.5384 18.6574 81.5384 19.6438C81.5384 21.2764 80.9857 22.5732 79.8802 23.5341C78.7748 24.4864 77.3038 24.9626 75.467 24.9626C73.6218 24.9626 72.1423 24.4822 71.0283 23.5213C69.9229 22.5604 69.3702 21.2679 69.3702 19.6438C69.3702 18.6489 69.6338 17.7561 70.161 16.9653C70.6882 16.1745 71.428 15.5665 72.3804 15.1413C71.581 14.7332 70.9475 14.1762 70.4799 13.4704C70.0207 12.7562 69.7911 11.9441 69.7911 11.0342C69.7911 9.45263 70.3013 8.19839 71.3217 7.27154C72.3421 6.34468 73.7196 5.88125 75.4543 5.88125C77.1975 5.88125 78.5792 6.34468 79.5996 7.27154C80.62 8.19839 81.1302 9.45263 81.1302 11.0342ZM78.4389 19.4908C78.4389 18.5724 78.1626 17.8326 77.6099 17.2714C77.0657 16.7017 76.3429 16.4168 75.4415 16.4168C74.5402 16.4168 73.8174 16.6974 73.2732 17.2586C72.7375 17.8199 72.4696 18.5639 72.4696 19.4908C72.4696 20.4006 72.7332 21.1276 73.2604 21.6718C73.7961 22.2161 74.5317 22.4882 75.467 22.4882C76.4024 22.4882 77.1294 22.2246 77.6481 21.6974C78.1753 21.1702 78.4389 20.4346 78.4389 19.4908ZM78.0435 11.149C78.0435 10.3412 77.8097 9.67797 77.342 9.15927C76.8743 8.63206 76.2451 8.36846 75.4543 8.36846C74.6635 8.36846 74.0385 8.61931 73.5793 9.121C73.1201 9.61419 72.8905 10.2902 72.8905 11.149C72.8905 11.9994 73.1201 12.6754 73.5793 13.1771C74.047 13.6788 74.6762 13.9296 75.467 13.9296C76.2579 13.9296 76.8828 13.6788 77.342 13.1771C77.8097 12.6754 78.0435 11.9994 78.0435 11.149ZM103.935 16.8888C103.935 19.5588 103.433 21.5741 102.43 22.9346C101.435 24.2866 99.9172 24.9626 97.8764 24.9626C95.8697 24.9626 94.3561 24.3036 93.3357 22.9856C92.3238 21.6591 91.8051 19.6991 91.7796 17.1056V13.8913C91.7796 11.2213 92.277 9.21879 93.2719 7.88377C94.2753 6.54876 95.8016 5.88125 97.8509 5.88125C99.8832 5.88125 101.397 6.53175 102.392 7.83275C103.395 9.13376 103.91 11.081 103.935 13.6745V16.8888ZM100.836 13.4194C100.836 11.6762 100.597 10.4007 100.121 9.59293C99.6451 8.77662 98.8883 8.36846 97.8509 8.36846C96.839 8.36846 96.095 8.75536 95.6188 9.52916C95.1426 10.2945 94.8918 11.4934 94.8663 13.126V17.3352C94.8663 19.0698 95.1086 20.3623 95.5933 21.2127C96.078 22.063 96.839 22.4882 97.8764 22.4882C98.8713 22.4882 99.6068 22.097 100.083 21.3147C100.559 20.5239 100.81 19.2909 100.836 17.6158V13.4194ZM115.988 16.9398C114.951 18.0367 113.739 18.5852 112.353 18.5852C110.72 18.5852 109.419 18.0154 108.45 16.876C107.48 15.7281 106.996 14.223 106.996 12.3608C106.996 11.1363 107.242 10.0266 107.735 9.03172C108.229 8.03683 108.93 7.26303 109.84 6.71032C110.75 6.15761 111.804 5.88125 113.003 5.88125C114.874 5.88125 116.358 6.57852 117.455 7.97306C118.552 9.3676 119.1 11.2341 119.1 13.5725V14.4398C119.1 17.7901 118.343 20.3453 116.83 22.1055C115.316 23.8657 113.059 24.7585 110.057 24.784H109.687V22.2203H110.133C111.962 22.1948 113.365 21.7569 114.343 20.9066C115.32 20.0477 115.869 18.7255 115.988 16.9398ZM113.003 16.1617C113.624 16.1617 114.206 15.9832 114.751 15.626C115.295 15.2689 115.716 14.7757 116.013 14.1464V12.9347C116.013 11.5657 115.733 10.4645 115.172 9.6312C114.61 8.79788 113.883 8.38121 112.991 8.38121C112.098 8.38121 111.383 8.75111 110.848 9.49089C110.32 10.2222 110.057 11.149 110.057 12.2715C110.057 13.4364 110.325 14.376 110.86 15.0903C111.396 15.8046 112.11 16.1617 113.003 16.1617ZM132.212 6.04706V8.6108H131.829C130.094 8.63631 128.708 9.1125 127.671 10.0394C126.634 10.9662 126.017 12.28 125.821 13.9806C126.816 12.9347 128.088 12.4118 129.635 12.4118C131.276 12.4118 132.569 12.99 133.513 14.1464C134.465 15.3029 134.941 16.7952 134.941 18.6234C134.941 20.5111 134.384 22.0417 133.27 23.2152C132.165 24.3801 130.711 24.9626 128.908 24.9626C127.054 24.9626 125.549 24.2781 124.393 22.9091C123.245 21.54 122.671 19.7459 122.671 17.5265V16.4678C122.671 13.2111 123.462 10.6601 125.043 8.81488C126.634 6.96967 128.917 6.04706 131.893 6.04706H132.212ZM128.883 14.9117C128.202 14.9117 127.577 15.1031 127.008 15.4857C126.446 15.8684 126.034 16.3786 125.77 17.0163V17.9602C125.77 19.3377 126.06 20.4346 126.638 21.2509C127.216 22.0587 127.964 22.4627 128.883 22.4627C129.801 22.4627 130.528 22.1183 131.064 21.4295C131.599 20.7407 131.867 19.8351 131.867 18.7127C131.867 17.5903 131.595 16.6762 131.051 15.9704C130.507 15.2646 129.784 14.9117 128.883 14.9117ZM153.358 24.7075H150.272V9.79701L145.718 11.3531V8.73835L152.963 6.07257H153.358V24.7075ZM168.727 24.7075H165.641V9.79701L161.087 11.3531V8.73835L168.332 6.07257H168.727V24.7075ZM184.097 24.7075H181.01V9.79701L176.456 11.3531V8.73835L183.701 6.07257H184.097V24.7075ZM206.493 24.7075H203.407V9.79701L198.853 11.3531V8.73835L206.098 6.07257H206.493V24.7075ZM221.862 24.7075H218.776V9.79701L214.222 11.3531V8.73835L221.467 6.07257H221.862V24.7075ZM244.259 24.7075H241.172V9.79701L236.619 11.3531V8.73835L243.864 6.07257H244.259V24.7075ZM259.628 24.7075H256.542V9.79701L251.988 11.3531V8.73835L259.233 6.07257H259.628V24.7075Z" fill="#757575"/>
<path d="M16.1284 7.73096H3.06736C1.524 7.73096 0.268555 9.00108 0.268555 10.5625V35.1023C0.268555 36.6637 1.524 37.9338 3.06736 37.9338H16.1284C17.6718 37.9338 18.9272 36.6637 18.9272 35.1023V10.5625C18.9272 9.00108 17.6718 7.73096 16.1284 7.73096ZM3.06736 9.61864H16.1284C16.6432 9.61864 17.0614 10.0417 17.0614 10.5625V30.3831H2.13442V10.5625C2.13442 10.0417 2.5526 9.61864 3.06736 9.61864ZM16.1284 36.0461H3.06736C2.5526 36.0461 2.13442 35.6231 2.13442 35.1023V32.2708H17.0614V35.1023C17.0614 35.6231 16.6432 36.0461 16.1284 36.0461Z" fill="#757575"/>
<path d="M4.65987 33.4914C5.02418 33.8601 5.02418 34.4579 4.65987 34.8266C4.29556 35.1954 3.70493 35.1954 3.34062 34.8266C2.9763 34.4579 2.9763 33.8601 3.34062 33.4914C3.70493 33.1227 4.29556 33.1227 4.65987 33.4914Z" fill="#757575"/>
</svg>
