<svg width="283" height="37" viewBox="0 0 283 37" fill="none" xmlns="http://www.w3.org/2000/svg">
<path d="M15.6361 1.32622H21.7972L25.6782 12.7266L29.5592 1.32622H35.7688L29.8988 16.9957L34.2649 28.0081L44.0159 1.22919H51.2928L37.2727 35.673H31.6452L25.6782 21.2163L19.7112 35.673H14.0837L0.160645 1.22919H7.34049L17.14 28.0081L21.4091 16.9957L15.6361 1.32622ZM64.3077 36.1582C62.2702 36.1582 60.4268 35.8186 58.7773 35.1394C57.1279 34.4279 55.721 33.4738 54.5567 32.2772C53.3924 31.0805 52.4869 29.6898 51.84 28.1051C51.2256 26.5204 50.9183 24.8548 50.9183 23.1083C50.9183 21.2972 51.2256 19.5992 51.84 18.0145C52.4545 16.3974 53.3439 14.9906 54.5082 13.7939C55.6725 12.5649 57.0794 11.5947 58.7288 10.8832C60.4106 10.1717 62.2864 9.8159 64.3563 9.8159C66.4261 9.8159 68.2696 10.1717 69.8867 10.8832C71.5361 11.5947 72.9268 12.5488 74.0588 13.7454C75.2231 14.942 76.0963 16.3327 76.6784 17.9175C77.2929 19.5022 77.6002 21.1516 77.6002 22.8657C77.6002 23.2862 77.584 23.6905 77.5516 24.0786C77.5516 24.4667 77.5193 24.7901 77.4546 25.0488H57.8071C57.9041 26.0514 58.1467 26.9408 58.5348 27.717C58.9229 28.4932 59.4242 29.1562 60.0387 29.706C60.6531 30.2558 61.3485 30.6763 62.1247 30.9673C62.9009 31.2584 63.7094 31.4039 64.5503 31.4039C65.844 31.4039 67.0568 31.0967 68.1887 30.4822C69.353 29.8354 70.1454 28.9945 70.5659 27.9596L76.1448 29.512C75.2069 31.4525 73.703 33.0534 71.6331 34.3147C69.5956 35.5437 67.1538 36.1582 64.3077 36.1582ZM70.9054 20.8282C70.7437 18.9201 70.0322 17.4 68.7709 16.2681C67.5419 15.1038 66.038 14.5216 64.2592 14.5216C63.386 14.5216 62.5613 14.6833 61.7851 15.0067C61.0412 15.2978 60.3782 15.7182 59.7961 16.2681C59.2139 16.8179 58.7288 17.4809 58.3407 18.2571C57.985 19.0333 57.7747 19.8903 57.7101 20.8282H70.9054ZM97.4725 36.1582C95.532 36.1582 93.8017 35.7215 92.2816 34.8483C90.7616 33.9751 89.5649 32.7785 88.6917 31.2584V35.673H83.0157V0.258944H89.5164V14.7157C90.422 13.1633 91.6024 11.9666 93.0578 11.1257C94.5455 10.2525 96.2758 9.8159 98.2487 9.8159C99.8981 9.8159 101.402 10.1717 102.76 10.8832C104.119 11.5947 105.283 12.5488 106.253 13.7454C107.256 14.942 108.016 16.3489 108.533 17.966C109.083 19.5831 109.358 21.281 109.358 23.0598C109.358 24.9033 109.051 26.6174 108.436 28.2021C107.854 29.7869 107.029 31.1775 105.962 32.3742C104.895 33.5385 103.634 34.4602 102.178 35.1394C100.723 35.8186 99.1542 36.1582 97.4725 36.1582ZM95.6775 30.6277C96.7124 30.6277 97.6665 30.4337 98.5397 30.0456C99.4129 29.6251 100.157 29.0753 100.771 28.3962C101.386 27.717 101.855 26.9246 102.178 26.0191C102.534 25.1135 102.712 24.1432 102.712 23.1083C102.712 22.0734 102.55 21.087 102.227 20.149C101.903 19.2111 101.434 18.3864 100.82 17.6749C100.238 16.9634 99.5423 16.3974 98.7338 15.977C97.9252 15.5565 97.0358 15.3463 96.0656 15.3463C94.6102 15.3463 93.3004 15.8314 92.1361 16.8017C91.0041 17.7396 90.1309 18.9039 89.5164 20.2946V26.3586C89.7428 27.0055 90.0662 27.5876 90.4867 28.1051C90.9394 28.6226 91.4407 29.0753 91.9905 29.4634C92.5404 29.8192 93.1387 30.1103 93.7855 30.3367C94.4323 30.5307 95.063 30.6277 95.6775 30.6277Z" fill="#2196F3"/>
<path d="M149.479 10.2525C149.253 10.0261 148.832 9.71887 148.218 9.33077C147.635 8.94267 146.908 8.57074 146.035 8.21499C145.194 7.82689 144.272 7.50347 143.269 7.24474C142.267 6.986 141.248 6.85664 140.213 6.85664C138.37 6.85664 136.995 7.19622 136.09 7.8754C135.184 8.55457 134.731 9.50865 134.731 10.7376C134.731 11.4492 134.893 12.0475 135.216 12.5326C135.572 12.9854 136.073 13.3896 136.72 13.7454C137.367 14.1012 138.176 14.4246 139.146 14.7157C140.148 15.0067 141.297 15.314 142.59 15.6374C144.272 16.0902 145.792 16.5753 147.15 17.0928C148.541 17.6102 149.705 18.2571 150.643 19.0333C151.613 19.8095 152.357 20.7474 152.875 21.847C153.392 22.9143 153.651 24.2403 153.651 25.825C153.651 27.6685 153.295 29.2532 152.584 30.5792C151.905 31.8729 150.967 32.924 149.77 33.7325C148.606 34.5411 147.247 35.1394 145.695 35.5275C144.175 35.8833 142.574 36.0611 140.892 36.0611C138.305 36.0611 135.75 35.673 133.227 34.8968C130.705 34.1206 128.441 33.021 126.436 31.598L129.395 25.825C129.686 26.1161 130.203 26.5042 130.947 26.9893C131.723 27.4421 132.629 27.911 133.664 28.3962C134.699 28.8489 135.847 29.237 137.108 29.5605C138.37 29.8839 139.663 30.0456 140.989 30.0456C144.676 30.0456 146.52 28.8651 146.52 26.5042C146.52 25.7603 146.309 25.1297 145.889 24.6122C145.469 24.0947 144.87 23.6419 144.094 23.2538C143.318 22.8657 142.38 22.51 141.28 22.1866C140.181 21.8632 138.952 21.5074 137.593 21.1193C135.944 20.6665 134.505 20.1814 133.276 19.6639C132.079 19.1141 131.077 18.4835 130.268 17.7719C129.459 17.0281 128.845 16.1872 128.425 15.2493C128.036 14.279 127.842 13.1309 127.842 11.8049C127.842 10.0585 128.166 8.50606 128.813 7.14771C129.459 5.78936 130.349 4.6574 131.481 3.75184C132.645 2.84627 133.987 2.1671 135.507 1.71432C137.027 1.22919 138.661 0.98663 140.407 0.98663C142.833 0.98663 145.064 1.37473 147.102 2.15093C149.139 2.89479 150.918 3.78418 152.438 4.81911L149.479 10.2525ZM174.483 34.3632C173.61 34.7513 172.543 35.1394 171.282 35.5275C170.02 35.9156 168.694 36.1096 167.303 36.1096C166.398 36.1096 165.541 35.9965 164.732 35.7701C163.956 35.5437 163.261 35.1879 162.646 34.7028C162.064 34.1853 161.595 33.5385 161.239 32.7623C160.884 31.9537 160.706 30.9835 160.706 29.8515V15.2493H157.358V10.2525H160.706V2.00539H167.206V10.2525H172.543V15.2493H167.206V27.6685C167.206 28.574 167.433 29.2209 167.886 29.609C168.371 29.9647 168.953 30.1426 169.632 30.1426C170.311 30.1426 170.974 30.0294 171.621 29.803C172.268 29.5766 172.785 29.3826 173.173 29.2209L174.483 34.3632ZM187.086 36.1582C184.467 36.1582 182.478 35.3173 181.119 33.6355C179.761 31.9537 179.082 29.4634 179.082 26.1646V10.2525H185.582V24.7577C185.582 28.6711 186.989 30.6277 189.803 30.6277C191.064 30.6277 192.277 30.2558 193.441 29.512C194.638 28.7358 195.608 27.5715 196.352 26.0191V10.2525H202.853V28.2021C202.853 28.8813 202.966 29.3664 203.192 29.6575C203.451 29.9486 203.855 30.1103 204.405 30.1426V35.673C203.758 35.8024 203.209 35.8833 202.756 35.9156C202.335 35.9479 201.947 35.9641 201.592 35.9641C200.427 35.9641 199.473 35.7054 198.729 35.1879C198.018 34.6381 197.597 33.8942 197.468 32.9563L197.322 30.9188C196.19 32.6653 194.735 33.9751 192.956 34.8483C191.178 35.7215 189.221 36.1582 187.086 36.1582ZM221.296 36.1582C219.549 36.1582 217.932 35.8186 216.444 35.1394C214.957 34.4602 213.679 33.5223 212.612 32.3257C211.545 31.129 210.704 29.7383 210.089 28.1536C209.507 26.5365 209.216 24.8062 209.216 22.9628C209.216 21.1193 209.491 19.4052 210.041 17.8205C210.623 16.2357 211.415 14.845 212.418 13.6484C213.42 12.4517 214.617 11.5138 216.008 10.8347C217.398 10.1555 218.918 9.8159 220.568 9.8159C222.444 9.8159 224.125 10.2687 225.613 11.1742C227.133 12.0798 228.314 13.2603 229.155 14.7157V0.258944H235.655V28.2021C235.655 28.8813 235.768 29.3664 235.995 29.6575C236.221 29.9486 236.609 30.1103 237.159 30.1426V35.673C236.027 35.8994 235.105 36.0126 234.394 36.0126C233.23 36.0126 232.276 35.7215 231.532 35.1394C230.788 34.5572 230.367 33.7972 230.27 32.8593L230.125 31.2584C229.187 32.8755 227.909 34.1045 226.292 34.9453C224.708 35.7539 223.042 36.1582 221.296 36.1582ZM222.993 30.6277C223.608 30.6277 224.239 30.5307 224.885 30.3367C225.532 30.1103 226.131 29.803 226.68 29.4149C227.23 29.0268 227.715 28.574 228.136 28.0566C228.589 27.5391 228.928 26.9731 229.155 26.3586V20.2946C228.896 19.5831 228.524 18.9362 228.039 18.3541C227.586 17.7396 227.052 17.2221 226.438 16.8017C225.856 16.3489 225.225 15.9931 224.546 15.7344C223.899 15.4757 223.252 15.3463 222.605 15.3463C221.635 15.3463 220.73 15.5565 219.889 15.977C219.08 16.3974 218.385 16.9796 217.803 17.7234C217.221 18.4349 216.768 19.2597 216.444 20.1976C216.121 21.1355 215.959 22.1057 215.959 23.1083C215.959 24.1756 216.137 25.162 216.493 26.0676C216.849 26.9731 217.334 27.7655 217.948 28.4447C218.563 29.1239 219.29 29.6575 220.131 30.0456C221.004 30.4337 221.959 30.6277 222.993 30.6277ZM243.492 35.673V10.2525H249.992V35.673H243.492ZM243.492 6.7111V0.258944H249.992V6.7111H243.492ZM269.052 36.1582C266.982 36.1582 265.122 35.8024 263.473 35.0909C261.824 34.3794 260.417 33.4253 259.252 32.2287C258.12 30.9997 257.247 29.5928 256.633 28.0081C256.018 26.4233 255.711 24.7577 255.711 23.0113C255.711 21.2325 256.018 19.5507 256.633 17.966C257.247 16.3812 258.12 14.9906 259.252 13.7939C260.417 12.5649 261.824 11.5947 263.473 10.8832C265.122 10.1717 266.982 9.8159 269.052 9.8159C271.122 9.8159 272.965 10.1717 274.582 10.8832C276.232 11.5947 277.622 12.5649 278.754 13.7939C279.919 14.9906 280.808 16.3812 281.423 17.966C282.037 19.5507 282.344 21.2325 282.344 23.0113C282.344 24.7577 282.037 26.4233 281.423 28.0081C280.808 29.5928 279.935 30.9997 278.803 32.2287C277.671 33.4253 276.28 34.3794 274.631 35.0909C272.981 35.8024 271.122 36.1582 269.052 36.1582ZM262.406 23.0113C262.406 24.1432 262.567 25.1782 262.891 26.1161C263.247 27.0216 263.716 27.814 264.298 28.4932C264.912 29.1724 265.624 29.706 266.432 30.0941C267.241 30.4499 268.114 30.6277 269.052 30.6277C269.99 30.6277 270.863 30.4499 271.672 30.0941C272.48 29.706 273.175 29.1724 273.758 28.4932C274.372 27.814 274.841 27.0055 275.164 26.0676C275.52 25.1297 275.698 24.0947 275.698 22.9628C275.698 21.8632 275.52 20.8444 275.164 19.9065C274.841 18.9686 274.372 18.16 273.758 17.4809C273.175 16.8017 272.48 16.2842 271.672 15.9285C270.863 15.5404 269.99 15.3463 269.052 15.3463C268.114 15.3463 267.241 15.5404 266.432 15.9285C265.624 16.3166 264.912 16.8502 264.298 17.5294C263.716 18.2086 263.247 19.0171 262.891 19.955C262.567 20.8929 262.406 21.9117 262.406 23.0113Z" fill="white"/>
</svg>
