<svg width="131" height="101" viewBox="0 0 131 101" fill="none" xmlns="http://www.w3.org/2000/svg">
<path d="M6.79224 100.297H111.226C114.83 100.297 117.753 97.374 117.753 93.7695V85.0667C117.753 81.4621 114.83 78.5395 111.226 78.5395H109.05V24.2819L121.409 12.5748C124.277 13.9888 127.749 13.1304 129.626 10.5393C131.504 7.94929 131.241 4.38296 129.003 2.09677C126.766 -0.189412 123.207 -0.530428 120.576 1.28939C117.945 3.11026 117.01 6.56185 118.362 9.46101L109.05 18.2881V13.2685C109.05 9.66392 106.128 6.74139 102.523 6.74139H15.495C11.8905 6.74139 8.96794 9.66392 8.96794 13.2685V78.5395H6.79224C3.18767 78.5395 0.265137 81.4621 0.265137 85.0667V93.7695C0.265137 97.374 3.18767 100.297 6.79224 100.297ZM124.28 4.56569C125.482 4.56569 126.456 5.53987 126.456 6.74139C126.456 7.94291 125.482 8.91709 124.28 8.91709C123.079 8.91709 122.104 7.94291 122.104 6.74139C122.104 5.53987 123.079 4.56569 124.28 4.56569ZM13.3193 13.2685C13.3193 12.067 14.2935 11.0928 15.495 11.0928H102.523C103.725 11.0928 104.699 12.067 104.699 13.2685V22.4058L100.347 26.5405V17.6199C100.347 16.4184 99.3732 15.4442 98.1717 15.4442H19.8464C18.6449 15.4442 17.6707 16.4184 17.6707 17.6199V72.0124C17.6707 73.214 18.6449 74.1881 19.8464 74.1881H98.1717C99.3732 74.1881 100.347 73.214 100.347 72.0124V32.5258L104.699 28.4028V78.5395H13.3193V13.2685ZM32.9007 41.5526C29.9569 41.5441 27.3722 43.5052 26.5892 46.3428C25.8063 49.1803 27.0184 52.19 29.55 53.6921C32.0805 55.1943 35.3048 54.8172 37.4199 52.77L44.9828 56.5648C45.8614 57.0046 46.9269 56.7985 47.5803 56.0644L63.6569 37.9778L79.4605 49.8199C80.3082 50.4552 81.4917 50.3872 82.2608 49.6594L95.996 36.6488V69.8367H22.0222V19.7956H95.996V30.6539L80.6025 45.2316L64.6661 33.2843C63.761 32.6065 62.4872 32.734 61.7351 33.5786L45.4375 51.9159L39.3449 48.8691C39.3895 48.6077 39.4171 48.3442 39.4278 48.0797C39.4278 44.4752 36.5052 41.5526 32.9007 41.5526ZM35.0764 48.0797C35.0764 49.2812 34.1022 50.2554 32.9007 50.2554C31.6991 50.2554 30.725 49.2812 30.725 48.0797C30.725 46.8782 31.6991 45.904 32.9007 45.904C34.1022 45.904 35.0764 46.8782 35.0764 48.0797ZM48.1306 82.891H69.8876V85.0667C69.8876 86.2682 68.9134 87.2424 67.7119 87.2424H50.3063C49.1047 87.2424 48.1306 86.2682 48.1306 85.0667V82.891ZM4.61654 85.0667C4.61654 83.8651 5.59072 82.891 6.79224 82.891H43.7792V85.0667C43.7792 88.6712 46.7017 91.5938 50.3063 91.5938H67.7119C71.3164 91.5938 74.239 88.6712 74.239 85.0667V82.891H111.226C112.427 82.891 113.402 83.8651 113.402 85.0667V93.7695C113.402 94.971 112.427 95.9452 111.226 95.9452H6.79224C5.59072 95.9452 4.61654 94.971 4.61654 93.7695V85.0667Z" fill="#212121"/>
</svg>
