<svg width="76" height="98" fill="none" xmlns="http://www.w3.org/2000/svg"><g clip-path="url(#clip0)" fill="#AFB1B8"><path d="M32.291 6.329h.255c.472 0 .982.047 1.487.09 2.225.157 4.435.49 6.608.996V2.073a39.352 39.352 0 00-6.82-1.087 54.563 54.563 0 00-2.757-.132h-.798c-4.617.017-9.215.61-13.688 1.765A55.467 55.467 0 002.054 8.526V61.51a59.024 59.024 0 0113.844-5.395 60.384 60.384 0 0111.621-1.784h.156a45.385 45.385 0 011.987-.057v-5.428a64.057 64.057 0 00-15.104 2.007 71.725 71.725 0 00-5.249 1.557l-1.888.64V11.738l.807-.39A52.76 52.76 0 0127.85 6.344a1.17 1.17 0 01.17 0c.75-.038 1.505-.057 2.246-.057H31.116c.392.01.784.02 1.175.043z"/><path d="M45.602 11.923a48.327 48.327 0 01-7.901-.64 42.96 42.96 0 01-2.469-.499v52.377a41.8 41.8 0 0010.385 1.224 55.866 55.866 0 0013.688-1.76 55.627 55.627 0 0014.529-5.907V4.678a59.29 59.29 0 01-13.84 5.4 58.712 58.712 0 01-14.392 1.845zm20.944.906l1.888-.636V53.52l-.807.389a51.804 51.804 0 01-9.653 3.468 50.16 50.16 0 01-12.353 1.6c-1.246 0-2.482-.053-3.681-.157l-1.294-.114V16.207l1.506.1c1.095.071 2.228.104 3.46.104A63.927 63.927 0 0061.297 14.4a83.066 83.066 0 005.249-1.57zM5.722 79.616a2.784 2.784 0 00-2.1-.85 3.124 3.124 0 00-1.213.228 2.73 2.73 0 00-1.553 1.57 3.08 3.08 0 00-.217 1.173v7.08c-.017.498.078.994.278 1.451.167.363.408.686.708.949.283.238.615.41.972.503.345.097.7.146 1.058.147.394.004.784-.08 1.142-.247.354-.155.675-.377.944-.655.263-.275.473-.596.618-.949a2.86 2.86 0 00.227-1.129v-.792h-1.85v.63c.005.216-.032.43-.109.632-.06.15-.152.287-.269.398a1.13 1.13 0 01-.387.205 1.3 1.3 0 01-.387.066.94.94 0 01-.869-.38 1.677 1.677 0 01-.245-.948v-6.6c-.011-.367.066-.73.227-1.058a.946.946 0 01.906-.428.983.983 0 01.826.399c.207.272.315.607.307.949v.612h1.831v-.721a3.337 3.337 0 00-.226-1.239 2.916 2.916 0 00-.619-.996zM16.715 79.535a3.294 3.294 0 00-2.106-.778c-.377.002-.75.07-1.104.2a2.908 2.908 0 00-1.694 1.57c-.187.433-.279.9-.27 1.371v6.79c-.013.478.08.952.27 1.39.167.365.412.69.717.95.283.262.615.465.977.597.354.13.727.198 1.104.2a3.197 3.197 0 002.106-.798c.295-.265.532-.588.698-.949.19-.438.282-.912.27-1.39v-6.79a3.303 3.303 0 00-.27-1.37 3.066 3.066 0 00-.698-.993zm-.864 9.153a1.22 1.22 0 01-.369.982 1.356 1.356 0 01-1.741 0 1.216 1.216 0 01-.368-.982v-6.79a1.22 1.22 0 01.368-.982 1.355 1.355 0 011.742 0 1.216 1.216 0 01.368.982v6.79zM31.154 91.72V78.866h-1.78l-2.336 6.804h-.033l-2.355-6.804h-1.76V91.72h1.835V83.9h.033l1.799 5.528h.915l1.813-5.528h.033v7.82h1.836zM41.586 79.768a2.548 2.548 0 00-1.039-.703c-.43-.14-.88-.207-1.331-.199h-2.728V91.72h1.831V86.7h.944a3.352 3.352 0 001.652-.351 2.67 2.67 0 001.006-.983c.212-.341.354-.722.42-1.12.072-.483.105-.972.099-1.46a7.328 7.328 0 00-.18-1.837 2.737 2.737 0 00-.674-1.181zm-.944 3.919a1.62 1.62 0 01-.17.669c-.105.198-.27.356-.472.45a1.879 1.879 0 01-.864.162H38.3v-4.37h.944c.285-.014.568.041.826.161.19.109.34.275.43.475.1.226.154.47.16.716v.854c0 .3.02.608 0 .883h-.018zM50.26 78.866h-1.5L45.926 91.72h1.832l.538-2.762h2.497l.538 2.762h1.831L50.26 78.866zm-1.69 8.342l.902-4.66h.033l.897 4.66H48.57zM62.094 86.61h-.033l-2.766-7.744h-1.76V91.72h1.831v-7.73h.038l2.799 7.73h1.723V78.866h-1.832v7.744zM73.285 78.866l-1.472 5.11h-.038l-1.473-5.11h-1.94l2.516 7.421v5.433h1.832v-5.433l2.515-7.42h-1.94zM.615 95.35h.882v2.476h.6v-2.477h.878v-.507H.615v.507zM8.035 94.842l-1.157 2.984h.638l.245-.678h1.19l.254.678h.652l-1.185-2.984h-.637zm-.095 1.803l.406-1.106.406 1.106H7.94zM15.37 96.725h.689v.385c-.201.161-.45.25-.708.251a.751.751 0 01-.633-.284 1.248 1.248 0 01-.221-.778c0-.665.287-.997.859-.997a.63.63 0 01.675.475l.59-.114c-.128-.584-.548-.878-1.265-.878a1.501 1.501 0 00-1.043.384 1.456 1.456 0 00-.43 1.148c-.017.409.12.809.382 1.12a1.446 1.446 0 001.133.437c.467.013.92-.157 1.265-.475v-1.176H15.37v.502zM22.86 94.842h-.604v2.984h2.091v-.508H22.86v-2.476zM29.195 94.842h-.604v2.984h.604v-2.984zM35.387 96.834l-1.222-1.992h-.585v2.984h.561v-1.95l1.2 1.95h.599v-2.984h-.553v1.992zM40.986 96.512h1.487v-.508h-1.487v-.655h1.6v-.507h-2.204v2.984h2.266v-.508h-1.662v-.806zM54.56 96.018h-1.174v-1.176h-.6v2.984h.6v-1.305h1.175v1.305h.6v-2.984h-.6v1.176zM60.192 96.512h1.492v-.508h-1.492v-.655h1.605v-.507h-2.204v2.984h2.26v-.508h-1.66v-.806zM67.83 96.512c.519-.08.783-.356.783-.83a.716.716 0 00-.293-.665 1.687 1.687 0 00-.873-.175h-1.265v2.984h.6v-1.248h.118a.804.804 0 01.372.067c.088.054.161.129.213.218l.651.949h.718l-.364-.584a2.078 2.078 0 00-.66-.716zm-.605-.413h-.443v-.75h.472c.205-.016.412.008.608.072a.389.389 0 01-.028.607c-.197.06-.403.084-.609.071zM73.588 96.512h1.486v-.508h-1.486v-.655h1.604v-.507h-2.209v2.984h2.266v-.508h-1.661v-.806z"/></g><defs><clipPath id="clip0"><path fill="#fff" transform="translate(.615 .854)" d="M0 0h74.635v97.025H0z"/></clipPath></defs></svg>