<svg width="111" height="89" fill="none" xmlns="http://www.w3.org/2000/svg"><g clip-path="url(#clip0)" fill="#AFB1B8"><path d="M8.713 73.738c.43.533.658 1.2.646 1.886a2.994 2.994 0 01-1 2.382 4.326 4.326 0 01-2.908.87H.34V66.925h5.006a4.261 4.261 0 012.774.794 2.731 2.731 0 01.971 2.236c.03.66-.177 1.307-.581 1.827a2.714 2.714 0 01-1.524.934c.678.125 1.29.487 1.727 1.022zm-5.995-1.804h2.14c.486.036.97-.105 1.36-.397a1.419 1.419 0 00.46-1.168 1.47 1.47 0 00-.454-1.167 2.064 2.064 0 00-1.4-.403H2.717v3.135zm3.71 4.583a1.482 1.482 0 00.506-1.214 1.511 1.511 0 00-.518-1.226 2.203 2.203 0 00-1.453-.432H2.718v3.287h2.274a2.25 2.25 0 001.436-.415zM18.947 78.876l-2.785-4.67h-1.047v4.67h-2.396V66.925h4.536a4.46 4.46 0 013.157 1.016 3.82 3.82 0 01.338 4.945 3.678 3.678 0 01-2.164 1.214l2.966 4.776h-2.605zm-3.832-6.3h1.96c1.36 0 2.04-.603 2.04-1.81a1.786 1.786 0 00-.5-1.342 2.117 2.117 0 00-1.54-.485h-1.983l.023 3.637zM32.042 76.47h-4.774l-.843 2.406h-2.512l4.384-11.817h2.715l4.367 11.817h-2.512l-.825-2.406zm-.64-1.81l-1.744-5.044-1.745 5.044h3.49zM48.434 78.876h-2.378l-5.332-8.127v8.127H38.35V66.925h2.373l5.332 8.173v-8.173h2.378v11.95zM62.006 76.015a5.144 5.144 0 01-2.151 2.108 6.984 6.984 0 01-3.344.753h-4.233V66.925h4.233a7.122 7.122 0 013.343.736c.91.46 1.66 1.187 2.152 2.084a6.97 6.97 0 010 6.27zm-2.721-.286a4.39 4.39 0 000-5.704 4.124 4.124 0 00-2.977-1.016h-1.652v7.736h1.651a4.124 4.124 0 002.978-1.016zM33.53.451s30.697 11.636 30.046 28.473v28.479S32.903 45.76 33.542 28.924L33.531.451zM90.922 50.736a41.955 41.955 0 0119.503-7.216v-8.915a40.055 40.055 0 00-19.503 16.13z"/><path d="M87.44 53.421a41.762 41.762 0 0122.986-20.685V7.048S66.71 23.623 67.635 47.6v40.547s1.947-.742 5.012-2.131c0-1.296 0-2.604.14-3.918A42.179 42.179 0 0187.44 53.421z"/><path d="M83.283 68.484c.23-2.812.742-5.594 1.529-8.302a39.258 39.258 0 00-9.141 22.156c-.064.77-.099 1.54-.116 2.335a126.868 126.868 0 008.408-4.449 42.125 42.125 0 01-.68-11.74zM85.021 68.63a40.265 40.265 0 00.541 10.63C97.506 72.087 110.926 61 110.409 47.6v-1.167a39.13 39.13 0 00-22.725 10.66 40.099 40.099 0 00-2.663 11.537z"/></g><defs><clipPath id="clip0"><path fill="#fff" transform="translate(.34 .451)" d="M0 0h110.086v87.696H0z"/></clipPath></defs></svg>