<svg aria-hidden="true" style="position: absolute; width: 0; height: 0; overflow: hidden;" version="1.1" xmlns="http://www.w3.org/2000/svg" xmlns:xlink="http://www.w3.org/1999/xlink">
<defs>
<symbol id="icon-logo-customer-1" viewBox="0 0 29 32">
<path d="M3.84 0l4.677 4.428h13.046v12.351l4.677 4.428v-21.206h-22.4z"></path>
<path d="M0 4.241v20.6h21.76v-8.188l-13.105-12.407-8.655-0.005zM17.615 21.828h-14.172v-13.855h1.002v12.917h13.17v0.938zM6.266 28.662l0.524-1.078h0.438l-0.764 1.437v0.838h-0.397v-0.838l-0.764-1.437h0.439l0.524 1.078zM8.513 29.329h-0.881l-0.184 0.53h-0.411l0.859-2.275h0.355l0.861 2.275h-0.413l-0.186-0.53zM7.743 29.010h0.659l-0.33-0.944-0.33 0.944zM10.071 29.244c0-0.105 0.029-0.202 0.086-0.289 0.058-0.089 0.17-0.193 0.339-0.314-0.069-0.083-0.131-0.176-0.182-0.276l-0.004-0.008c-0.031-0.066-0.050-0.144-0.052-0.226v-0c0-0.179 0.054-0.319 0.163-0.422s0.254-0.156 0.437-0.156c0.166 0 0.301 0.049 0.406 0.147 0.106 0.097 0.16 0.218 0.16 0.361 0 0.001 0 0.002 0 0.003 0 0.096-0.027 0.186-0.074 0.262l0.001-0.002c-0.063 0.095-0.142 0.174-0.233 0.236l-0.003 0.002-0.155 0.113 0.44 0.518c0.063-0.125 0.095-0.264 0.095-0.417h0.33c0 0.28-0.065 0.509-0.196 0.689l0.334 0.396h-0.44l-0.128-0.152c-0.154 0.115-0.348 0.183-0.558 0.183-0.008 0-0.017-0-0.025-0l0.001 0c-0.225 0-0.405-0.060-0.54-0.179-0.124-0.11-0.202-0.27-0.202-0.447 0-0.007 0-0.014 0-0.021l-0 0.001zM10.824 29.587c0.128 0 0.248-0.043 0.359-0.128l-0.497-0.586-0.049 0.035c-0.125 0.095-0.188 0.203-0.188 0.325 0 0.105 0.034 0.191 0.102 0.256 0.066 0.061 0.156 0.099 0.254 0.099 0.006 0 0.013-0 0.019-0l-0.001 0zM10.614 28.121c0 0.088 0.054 0.197 0.161 0.33l0.173-0.118 0.049-0.039c0.059-0.052 0.097-0.128 0.097-0.212 0-0.003-0-0.006-0-0.009v0c0-0.001 0-0.001 0-0.002 0-0.059-0.026-0.112-0.067-0.149l-0-0c-0.042-0.040-0.099-0.064-0.162-0.064-0.003 0-0.006 0-0.009 0h0c-0.003-0-0.006-0-0.010-0-0.066 0-0.126 0.029-0.167 0.075l-0 0c-0.041 0.048-0.066 0.111-0.066 0.179 0 0.003 0 0.007 0 0.010v-0zM14.748 29.118c-0.023 0.243-0.113 0.432-0.269 0.568s-0.364 0.204-0.623 0.204c-0.181 0-0.341-0.043-0.48-0.128-0.139-0.089-0.248-0.214-0.317-0.362l-0.002-0.005c-0.074-0.16-0.117-0.347-0.117-0.544 0-0.003 0-0.005 0-0.008v0-0.212c0-0.214 0.038-0.403 0.114-0.567 0.077-0.164 0.186-0.29 0.326-0.378 0.143-0.089 0.307-0.133 0.494-0.133 0.251 0 0.453 0.068 0.606 0.205s0.243 0.329 0.268 0.578h-0.394c-0.019-0.163-0.067-0.281-0.144-0.353-0.076-0.073-0.188-0.109-0.336-0.109-0.172 0-0.304 0.063-0.397 0.189-0.092 0.125-0.138 0.309-0.141 0.552v0.202c0 0.246 0.044 0.433 0.132 0.563s0.218 0.194 0.387 0.194c0.155 0 0.272-0.035 0.35-0.105s0.128-0.186 0.148-0.348h0.394zM16.918 28.78c0 0.223-0.038 0.419-0.115 0.588-0.077 0.168-0.188 0.297-0.332 0.388-0.143 0.090-0.307 0.134-0.494 0.134-0.184 0-0.349-0.045-0.493-0.134-0.146-0.094-0.261-0.225-0.332-0.38l-0.002-0.006c-0.075-0.163-0.119-0.354-0.119-0.555 0-0.008 0-0.015 0-0.023v0.001-0.128c0-0.222 0.038-0.418 0.117-0.588s0.19-0.3 0.333-0.389c0.144-0.091 0.308-0.136 0.493-0.136s0.35 0.045 0.493 0.134c0.143 0.089 0.255 0.217 0.333 0.384s0.118 0.362 0.118 0.584v0.126zM16.522 28.662c0-0.252-0.048-0.445-0.143-0.58-0.085-0.123-0.225-0.202-0.384-0.202-0.007 0-0.015 0-0.022 0.001l0.001-0c-0.005-0-0.011-0-0.016-0-0.159 0-0.299 0.079-0.384 0.2l-0.001 0.002c-0.096 0.133-0.145 0.323-0.147 0.567v0.131c0 0.25 0.049 0.444 0.146 0.58s0.233 0.205 0.406 0.205c0.175 0 0.31-0.067 0.403-0.2 0.095-0.133 0.142-0.328 0.142-0.584v-0.118z"></path>
</symbol>
<symbol id="icon-logo-customer-2" viewBox="0 0 25 32">
<path d="M10.544 2.067h0.083c0.154 0 0.321 0.015 0.486 0.029 0.727 0.051 1.448 0.16 2.158 0.325v-1.744c-0.646-0.17-1.406-0.296-2.185-0.352l-0.042-0.002c-0.251-0.020-0.564-0.035-0.879-0.043l-0.021-0h-0.261c-1.508 0.006-3.009 0.199-4.47 0.576-1.798 0.456-3.377 1.117-4.827 1.975l0.084-0.046v17.301c1.299-0.722 2.804-1.325 4.387-1.732l0.134-0.029c1.112-0.297 2.41-0.505 3.743-0.58l0.052-0.002h0.051c0.189-0.010 0.416-0.017 0.643-0.019l0.005-0v-1.772c-1.762 0.023-3.458 0.261-5.078 0.688l0.146-0.033c-0.744 0.189-1.316 0.363-1.878 0.558l0.164-0.050-0.616 0.209v-13.49l0.264-0.127c1.871-0.909 4.055-1.497 6.361-1.632l0.047-0.002c0.008-0.001 0.018-0.001 0.028-0.001s0.019 0 0.029 0.001l-0.001-0c0.245-0.012 0.491-0.019 0.733-0.019h0.278c0.128 0.003 0.256 0.007 0.384 0.014z"></path>
<path d="M14.89 3.893c-0.006 0-0.013 0-0.020 0-0.904 0-1.79-0.076-2.653-0.222l0.093 0.013c-0.36-0.061-0.632-0.118-0.902-0.182l0.096 0.019v17.103c0.985 0.254 2.116 0.4 3.281 0.4 0.039 0 0.078-0 0.116-0l-0.006 0c1.591-0.007 3.13-0.216 4.597-0.603l-0.127 0.029c1.799-0.456 3.378-1.118 4.829-1.975l-0.084 0.046v-16.993c-1.299 0.721-2.802 1.325-4.385 1.734l-0.134 0.029c-1.409 0.377-3.027 0.596-4.696 0.602h-0.004zM21.729 4.189l0.616-0.208v13.495l-0.264 0.127c-0.894 0.438-1.943 0.826-3.035 1.107l-0.117 0.026c-1.209 0.326-2.598 0.516-4.030 0.522h-0.004c-0.407 0-0.81-0.017-1.202-0.051l-0.423-0.037v-13.877l0.492 0.033c0.358 0.023 0.728 0.034 1.13 0.034 1.823-0.007 3.586-0.246 5.267-0.689l-0.145 0.033c0.769-0.201 1.341-0.376 1.905-0.57l-0.191 0.057zM1.868 25.997c-0.166-0.172-0.398-0.278-0.654-0.278-0.011 0-0.022 0-0.033 0.001l0.002-0c-0.004-0-0.009-0-0.013-0-0.138 0-0.27 0.027-0.39 0.077l0.007-0.002c-0.234 0.094-0.416 0.277-0.505 0.507l-0.002 0.006c-0.045 0.11-0.071 0.237-0.071 0.371 0 0.004 0 0.008 0 0.013v-0.001 2.312c-0.006 0.163 0.025 0.325 0.091 0.474 0.055 0.119 0.133 0.224 0.231 0.31 0.092 0.078 0.201 0.134 0.317 0.164 0.113 0.032 0.229 0.048 0.345 0.048 0.129 0.001 0.256-0.026 0.373-0.081 0.116-0.051 0.22-0.123 0.308-0.214 0.086-0.090 0.154-0.195 0.202-0.31 0.047-0.108 0.074-0.233 0.074-0.365 0-0.001 0-0.003 0-0.004v0-0.259h-0.604v0.206c0.002 0.071-0.010 0.14-0.036 0.206-0.020 0.049-0.050 0.094-0.088 0.13-0.036 0.029-0.078 0.052-0.124 0.066l-0.003 0.001c-0.038 0.013-0.081 0.021-0.126 0.022h-0c-0.011 0.001-0.023 0.002-0.036 0.002-0.102 0-0.192-0.049-0.247-0.125l-0.001-0.001c-0.051-0.081-0.081-0.18-0.081-0.286 0-0.008 0-0.017 0.001-0.025l-0 0.001v-2.155c-0.004-0.12 0.022-0.238 0.074-0.345 0.056-0.086 0.151-0.142 0.26-0.142 0.013 0 0.025 0.001 0.037 0.002l-0.001-0c0.003-0 0.007-0 0.011-0 0.106 0 0.199 0.051 0.258 0.13l0.001 0.001c0.068 0.089 0.103 0.198 0.1 0.31v0.2h0.598v-0.235c0-0.003 0-0.007 0-0.010 0-0.142-0.027-0.277-0.076-0.402l0.003 0.007c-0.047-0.126-0.116-0.235-0.203-0.326l0 0zM5.458 25.971c-0.184-0.157-0.425-0.252-0.687-0.254h-0c-0.123 0.001-0.245 0.023-0.361 0.065-0.249 0.090-0.446 0.273-0.551 0.507l-0.002 0.006c-0.061 0.141-0.091 0.294-0.088 0.448v2.217c-0.004 0.156 0.026 0.311 0.088 0.454 0.055 0.119 0.135 0.225 0.234 0.31 0.092 0.086 0.201 0.152 0.319 0.195 0.116 0.042 0.237 0.065 0.361 0.065 0.264-0.001 0.505-0.099 0.689-0.262l-0.001 0.001c0.096-0.087 0.174-0.192 0.228-0.31 0.062-0.143 0.092-0.298 0.088-0.454v-2.217c0-0.006 0-0.013 0-0.020 0-0.155-0.032-0.302-0.091-0.434l0.003 0.007c-0.056-0.127-0.133-0.234-0.228-0.324l-0-0zM5.176 28.959c0.001 0.010 0.001 0.022 0.001 0.034 0 0.113-0.047 0.214-0.122 0.287l-0 0c-0.076 0.064-0.176 0.103-0.284 0.103s-0.208-0.039-0.285-0.104l0.001 0.001c-0.075-0.072-0.122-0.174-0.122-0.286 0-0.012 0.001-0.024 0.002-0.036l-0 0.002v-2.217c-0.001-0.010-0.001-0.022-0.001-0.034 0-0.112 0.047-0.214 0.122-0.286l0-0c0.076-0.064 0.176-0.104 0.284-0.104s0.208 0.039 0.285 0.104l-0.001-0.001c0.075 0.072 0.122 0.174 0.122 0.286 0 0.012-0.001 0.024-0.002 0.036l0-0.002v2.217zM10.173 29.949v-4.197h-0.581l-0.763 2.222h-0.011l-0.769-2.222h-0.575v4.197h0.599v-2.553h0.011l0.587 1.805h0.299l0.592-1.805h0.011v2.553h0.6zM13.579 26.047c-0.091-0.101-0.204-0.18-0.334-0.228l-0.006-0.002c-0.14-0.046-0.287-0.068-0.435-0.065h-0.891v4.197h0.598v-1.639h0.308c0.015 0.001 0.032 0.001 0.050 0.001 0.179 0 0.347-0.043 0.496-0.119l-0.006 0.003c0.137-0.077 0.248-0.186 0.326-0.317l0.002-0.004c0.069-0.111 0.116-0.236 0.137-0.366 0.024-0.158 0.034-0.317 0.032-0.477 0.001-0.020 0.001-0.044 0.001-0.068 0-0.188-0.022-0.372-0.063-0.548l0.003 0.016c-0.042-0.151-0.118-0.281-0.22-0.386l0 0zM13.271 27.326c-0.003 0.080-0.023 0.155-0.057 0.221l0.001-0.003c-0.034 0.065-0.088 0.116-0.154 0.147-0.074 0.034-0.16 0.054-0.251 0.054-0.011 0-0.022-0-0.033-0.001l0.002 0h-0.273v-1.427h0.308c0.093-0.005 0.185 0.013 0.27 0.053 0.062 0.036 0.111 0.090 0.14 0.155 0.033 0.074 0.050 0.153 0.052 0.234v0.279c0 0.098 0.007 0.199 0 0.288h-0.006zM16.411 25.752h-0.49l-0.925 4.197h0.598l0.176-0.902h0.815l0.176 0.902h0.598l-0.948-4.197zM15.86 28.476l0.295-1.522h0.011l0.293 1.522h-0.598zM20.276 28.281h-0.011l-0.903-2.529h-0.575v4.197h0.598v-2.524h0.012l0.914 2.524h0.563v-4.197h-0.598v2.529zM23.93 25.752l-0.481 1.669h-0.012l-0.481-1.669h-0.633l0.822 2.423v1.774h0.598v-1.774l0.821-2.423h-0.633zM0.201 31.135h0.288v0.808h0.196v-0.809h0.287v-0.166h-0.771v0.166zM2.624 30.969l-0.378 0.974h0.208l0.080-0.221h0.389l0.083 0.221h0.213l-0.387-0.974h-0.208zM2.593 31.558l0.133-0.361 0.133 0.361h-0.265zM5.019 31.584h0.225v0.126c-0.066 0.053-0.147 0.082-0.231 0.082-0.004 0-0.009 0-0.014 0-0.078 0-0.147-0.036-0.192-0.093l-0-0c-0.046-0.065-0.073-0.145-0.073-0.232 0-0.008 0-0.015 0.001-0.023l-0 0.001c0-0.217 0.094-0.326 0.28-0.326 0.006-0.001 0.013-0.001 0.021-0.001 0.096 0 0.177 0.066 0.199 0.155l0 0.001 0.193-0.037c-0.042-0.191-0.179-0.287-0.413-0.287-0.004-0-0.008-0-0.013-0-0.126 0-0.241 0.048-0.328 0.126l0-0c-0.088 0.086-0.142 0.206-0.142 0.339 0 0.013 0 0.025 0.001 0.038l-0-0.002c-0.006 0.134 0.039 0.264 0.125 0.366 0.086 0.089 0.206 0.144 0.339 0.144 0.011 0 0.022-0 0.032-0.001l-0.001 0c0.152 0.004 0.3-0.051 0.413-0.155v-0.384h-0.422v0.164zM7.465 30.969h-0.197v0.974h0.683v-0.166h-0.486v-0.808zM9.533 30.969h-0.197v0.974h0.197v-0.974zM11.555 31.619l-0.399-0.65h-0.191v0.974h0.183v-0.637l0.392 0.637h0.196v-0.974h-0.181v0.65zM13.383 31.514h0.486v-0.166h-0.486v-0.214h0.522v-0.166h-0.72v0.974h0.74v-0.166h-0.543v-0.263zM17.816 31.353h-0.383v-0.384h-0.196v0.974h0.196v-0.426h0.384v0.426h0.196v-0.974h-0.196v0.384zM19.655 31.514h0.487v-0.166h-0.487v-0.214h0.524v-0.166h-0.72v0.974h0.738v-0.166h-0.542v-0.263zM22.149 31.514c0.169-0.026 0.256-0.116 0.256-0.271 0.001-0.008 0.002-0.018 0.002-0.027 0-0.078-0.038-0.147-0.097-0.189l-0.001-0c-0.072-0.037-0.157-0.058-0.247-0.058-0.013 0-0.027 0-0.040 0.001l0.002-0h-0.413v0.974h0.196v-0.407h0.039c0.005-0 0.010-0 0.015-0 0.038 0 0.075 0.008 0.108 0.023l-0.002-0.001c0.029 0.018 0.053 0.042 0.070 0.071l0.213 0.31h0.234l-0.119-0.191c-0.054-0.095-0.126-0.173-0.213-0.232l-0.002-0.002zM21.951 31.379h-0.145v-0.245h0.154c0.067-0.005 0.135 0.003 0.199 0.023 0.027 0.023 0.043 0.057 0.043 0.095 0 0.042-0.020 0.079-0.052 0.102l-0 0c-0.064 0.020-0.132 0.027-0.199 0.023zM24.029 31.514h0.485v-0.166h-0.485v-0.214h0.524v-0.166h-0.721v0.974h0.74v-0.166h-0.542v-0.263z"></path>
</symbol>
<symbol id="icon-logo-customer-3" viewBox="0 0 31 32">
<path d="M4.723 31.103c0.023 0.001 0.044 0.010 0.060 0.025v0l0.153 0.161c-0.119 0.13-0.266 0.234-0.431 0.304-0.194 0.077-0.401 0.115-0.61 0.109-0.009 0-0.020 0-0.031 0-0.196 0-0.383-0.038-0.554-0.106l0.010 0.004c-0.332-0.134-0.588-0.397-0.709-0.725l-0.003-0.009c-0.061-0.164-0.097-0.353-0.097-0.55 0-0.007 0-0.015 0-0.022v0.001c-0-0.007-0-0.015-0-0.023 0-0.198 0.038-0.387 0.108-0.56l-0.004 0.010c0.067-0.165 0.168-0.316 0.298-0.444 0.13-0.127 0.286-0.225 0.459-0.29 0.188-0.070 0.389-0.104 0.592-0.102 0.188-0.004 0.374 0.027 0.549 0.093 0.151 0.063 0.29 0.149 0.412 0.257l-0.129 0.171c-0.009 0.012-0.019 0.023-0.032 0.031l-0 0c-0.013 0.009-0.028 0.014-0.045 0.014-0.002 0-0.005-0-0.007-0l0 0c-0.021-0.002-0.039-0.008-0.056-0.019l0 0-0.069-0.045-0.096-0.059c-0.087-0.046-0.189-0.082-0.296-0.101l-0.006-0.001c-0.063-0.011-0.135-0.018-0.209-0.018-0.007 0-0.013 0-0.020 0h0.001c-0.005-0-0.010-0-0.016-0-0.147 0-0.288 0.028-0.417 0.079l0.008-0.003c-0.13 0.051-0.241 0.124-0.333 0.216l0-0c-0.095 0.099-0.169 0.216-0.216 0.342-0.054 0.145-0.080 0.298-0.079 0.452-0.002 0.156 0.025 0.313 0.079 0.46 0.046 0.126 0.119 0.242 0.212 0.341 0.088 0.093 0.196 0.165 0.318 0.212 0.125 0.049 0.259 0.074 0.394 0.073 0.078 0.001 0.156-0.004 0.234-0.015 0.127-0.015 0.247-0.057 0.354-0.122 0.054-0.034 0.104-0.071 0.151-0.113 0.019-0.018 0.045-0.029 0.073-0.030h0zM9.144 30.296c0.002 0.194-0.033 0.387-0.103 0.568-0.067 0.172-0.165 0.319-0.288 0.44l-0 0c-0.126 0.123-0.276 0.221-0.444 0.286l-0.009 0.003c-0.173 0.065-0.373 0.102-0.582 0.102s-0.409-0.037-0.594-0.106l0.012 0.004c-0.175-0.069-0.325-0.167-0.45-0.29l0 0c-0.123-0.123-0.222-0.271-0.288-0.436l-0.003-0.009c-0.065-0.169-0.103-0.364-0.103-0.568s0.038-0.399 0.107-0.579l-0.004 0.011c0.065-0.166 0.164-0.318 0.29-0.447 0.126-0.119 0.276-0.214 0.441-0.276l0.009-0.003c0.173-0.066 0.373-0.104 0.582-0.104s0.409 0.038 0.594 0.108l-0.012-0.004c0.17 0.066 0.324 0.164 0.452 0.29 0.127 0.127 0.224 0.275 0.289 0.439 0.071 0.182 0.106 0.376 0.104 0.571zM8.742 30.296c0-0.007 0-0.016 0-0.024 0-0.155-0.027-0.303-0.076-0.441l0.003 0.009c-0.087-0.256-0.278-0.457-0.522-0.554l-0.006-0.002c-0.126-0.047-0.271-0.075-0.423-0.075s-0.297 0.027-0.432 0.078l0.009-0.003c-0.251 0.099-0.443 0.299-0.528 0.55l-0.002 0.006c-0.097 0.298-0.097 0.615 0 0.912 0.087 0.256 0.279 0.457 0.524 0.552l0.006 0.002c0.273 0.097 0.573 0.097 0.846 0 0.124-0.048 0.234-0.121 0.324-0.214 0.092-0.1 0.162-0.216 0.205-0.341 0.052-0.147 0.076-0.301 0.073-0.456zM12.16 30.774l0.041 0.102c0.015-0.036 0.028-0.069 0.044-0.102 0.017-0.040 0.034-0.073 0.052-0.105l-0.003 0.005 0.978-1.694c0.019-0.030 0.036-0.048 0.056-0.053s0.043-0.009 0.066-0.009c0.005 0 0.010 0 0.015 0l-0.001-0h0.289v2.755h-0.342v-2.11c-0.001-0.014-0.001-0.031-0.001-0.048s0.001-0.033 0.002-0.050l-0 0.002-0.984 1.718c-0.013 0.026-0.033 0.048-0.057 0.062l-0.001 0c-0.023 0.014-0.052 0.022-0.082 0.022-0.001 0-0.002 0-0.002-0h-0.055c-0.030 0.001-0.060-0.007-0.084-0.022s-0.045-0.036-0.058-0.062l-0-0.001-1.012-1.73v2.212h-0.331v-2.75h0.289c0.004-0 0.009-0 0.014-0 0.024 0 0.046 0.003 0.068 0.010l-0.002-0c0.024 0.011 0.042 0.029 0.053 0.052l0 0.001 0.999 1.696c0.018 0.028 0.035 0.060 0.048 0.094l0.001 0.004zM15.841 30.638v1.031h-0.383v-2.75h0.854c0.010-0 0.021-0 0.033-0 0.158 0 0.311 0.022 0.455 0.063l-0.012-0.003c0.124 0.034 0.239 0.092 0.337 0.171 0.085 0.074 0.15 0.167 0.191 0.27 0.045 0.112 0.067 0.232 0.066 0.352 0.002 0.121-0.022 0.24-0.071 0.352-0.049 0.109-0.118 0.201-0.205 0.274l-0.001 0.001c-0.095 0.080-0.209 0.143-0.333 0.181l-0.007 0.002c-0.149 0.045-0.305 0.067-0.461 0.064l-0.463-0.007zM15.841 30.342h0.463c0.101 0.002 0.201-0.013 0.297-0.042 0.083-0.027 0.154-0.068 0.215-0.12l-0.001 0.001c0.056-0.049 0.1-0.11 0.129-0.178l0.001-0.003c0.029-0.066 0.046-0.144 0.046-0.225 0-0.003-0-0.005-0-0.008v0c0-0.008 0.001-0.018 0.001-0.028 0-0.071-0.015-0.138-0.041-0.199l0.001 0.003c-0.032-0.074-0.077-0.137-0.133-0.188l-0-0c-0.126-0.094-0.285-0.15-0.457-0.15-0.021 0-0.041 0.001-0.061 0.002l0.003-0h-0.463v1.134zM20.986 31.673h-0.302c-0.002 0-0.003 0-0.005 0-0.030 0-0.057-0.010-0.079-0.026l0 0c-0.021-0.017-0.038-0.038-0.049-0.063l-0-0.001-0.26-0.665h-1.307l-0.27 0.665c-0.011 0.025-0.027 0.046-0.047 0.061l-0 0c-0.022 0.017-0.051 0.028-0.081 0.028-0.002 0-0.003-0-0.005-0h-0.302l1.148-2.756h0.398l1.164 2.756zM19.091 30.65h1.080l-0.455-1.122c-0.030-0.070-0.060-0.157-0.083-0.245l-0.003-0.014-0.045 0.144c-0.015 0.049-0.029 0.088-0.045 0.126l0.003-0.009-0.452 1.119zM22.64 28.93c0.023 0.013 0.043 0.030 0.058 0.050l1.674 2.076v-2.139h0.342v2.756h-0.191c-0.001 0-0.003 0-0.005 0-0.027 0-0.052-0.006-0.074-0.017l0.001 0c-0.024-0.014-0.044-0.031-0.061-0.051l-0-0-1.674-2.075c0.002 0.031 0.002 0.063 0 0.095v2.049h-0.342v-2.756h0.203c0.024 0 0.047 0.004 0.068 0.013zM27.537 30.577v1.094h-0.383v-1.094l-1.058-1.66h0.342c0.002-0 0.005-0 0.007-0 0.028 0 0.054 0.009 0.075 0.024l-0-0c0.021 0.018 0.038 0.038 0.052 0.061l0.001 0.001 0.662 1.070c0.045 0.070 0.085 0.151 0.114 0.236l0.002 0.008 0.050-0.118c0.019-0.043 0.040-0.086 0.066-0.126l0.653-1.078c0.014-0.022 0.031-0.042 0.050-0.059l0-0c0.020-0.017 0.047-0.027 0.076-0.027 0.002 0 0.004 0 0.006 0h0.346l-1.060 1.667zM11.971 24.293c0.167 0.020 0.335 0.037 0.505 0.051 2.582-1.101 4.768-2.902 6.282-5.18s2.29-4.93 2.23-7.625l-2.846-2.712c0.189 0.894 0.297 1.921 0.297 2.974 0 2.015-0.396 3.937-1.115 5.694l0.036-0.1c-1.090 2.731-2.956 5.12-5.389 6.899z"></path>
<path d="M10.954 24.167l0.077 0.015c2.6-1.773 4.583-4.247 5.692-7.104 0.627-1.564 0.99-3.377 0.99-5.275 0-1.296-0.17-2.553-0.488-3.75l0.023 0.102-4.054-3.862c1.269 2.396 2.014 5.238 2.014 8.254 0 0.702-0.040 1.394-0.119 2.075l0.008-0.083c-0.396 3.519-1.833 6.857-4.143 9.628zM24.704 14.724c-0.689 2.962-2.361 5.632-4.77 7.616-0.665 0.553-1.406 1.066-2.191 1.51l-0.075 0.039c2.039-0.578 3.804-1.556 5.285-2.851l-0.016 0.013c1.465-1.281 2.625-2.875 3.38-4.679l0.031-0.084-1.645-1.565z"></path>
<path d="M24.060 14.288l-2.341-2.23c-0.053 2.681-0.865 5.162-2.23 7.249l0.032-0.053c-1.394 2.169-3.373 3.943-5.729 5.137h0.012c0.525 0 1.049-0.030 1.571-0.089 2.251-0.883 4.15-2.237 5.65-3.95l0.014-0.017c1.454-1.66 2.512-3.704 3.005-5.958l0.016-0.089zM11.294 2.664l-2.793-2.664c-2.497 0.919-4.644 2.535-6.16 4.636s-2.333 4.589-2.34 7.139c0.010 2.818 1.005 5.552 2.829 7.77s4.372 3.793 7.242 4.476c2.562-2.973 4.061-6.647 4.281-10.488s-0.851-7.648-3.059-10.87zM30.512 13.878c-0.010-3.343-1.408-6.547-3.89-8.91s-5.843-3.696-9.352-3.706c-1.622-0.002-3.229 0.284-4.741 0.841l17.099 16.29c0.559-1.335 0.884-2.886 0.884-4.513 0-0.001 0-0.001 0-0.002v0z"></path>
</symbol>
<symbol id="icon-logo-customer-4" viewBox="0 0 60 32">
<path d="M9.229 9.548h-0.002c-1.684 0-3.049 1.331-3.049 2.971v0.002c0 1.64 1.365 2.971 3.048 2.971h0.002c1.684 0 3.049-1.331 3.049-2.971v-0.002c0-1.64-1.365-2.97-3.049-2.97zM31.73 8.599c-0.005-2.279-0.936-4.463-2.59-6.075-1.651-1.611-3.893-2.519-6.231-2.524-2.339 0.004-4.581 0.912-6.236 2.523s-2.585 3.797-2.59 6.076v12.566s17.645-1.915 17.647-12.564v-0.002zM0 25.289c0.008 1.659 0.697 3.155 1.801 4.226l0.002 0.001c1.121 1.086 2.65 1.756 4.336 1.758h0c1.686-0.001 3.215-0.671 4.337-1.759l-0.002 0.002c1.106-1.071 1.795-2.567 1.804-4.224v-8.746s-12.278 1.335-12.278 8.743zM6.14 26.855c-0.001 0-0.002 0-0.002 0-0.331 0-0.639-0.098-0.897-0.267l0.006 0.004c-0.262-0.171-0.466-0.41-0.589-0.693l-0.004-0.010c-0.077-0.177-0.122-0.382-0.122-0.598 0-0.109 0.011-0.215 0.033-0.317l-0.002 0.010c0.062-0.304 0.215-0.583 0.439-0.802 0.22-0.213 0.5-0.365 0.814-0.427l0.010-0.002c0.312-0.061 0.635-0.030 0.929 0.089s0.545 0.319 0.722 0.577c0.17 0.244 0.271 0.546 0.271 0.872 0 0.216-0.045 0.422-0.125 0.609l0.004-0.010c-0.080 0.191-0.199 0.365-0.348 0.511s-0.327 0.262-0.522 0.341c-0.182 0.076-0.394 0.12-0.616 0.12-0 0-0.001 0-0.001 0h0v-0.006zM18.672 25.884h-1.256v1.297h-0.655v-3.173h2.067v0.53h-1.412v0.819h1.255v0.528zM21.815 25.666c0 0.313-0.055 0.586-0.166 0.822s-0.269 0.417-0.475 0.545c-0.194 0.121-0.43 0.192-0.682 0.192-0.009 0-0.017-0-0.026-0l0.001 0c-0.263 0-0.498-0.063-0.704-0.19-0.208-0.131-0.373-0.314-0.476-0.533l-0.003-0.008c-0.109-0.23-0.173-0.5-0.173-0.785 0-0.009 0-0.018 0-0.028l-0 0.001v-0.158c0-0.313 0.056-0.588 0.168-0.825 0.113-0.238 0.272-0.42 0.477-0.547 0.207-0.128 0.442-0.192 0.707-0.192s0.499 0.064 0.704 0.192c0.206 0.127 0.365 0.309 0.477 0.547 0.114 0.237 0.17 0.511 0.17 0.822v0.141zM21.153 25.522c0-0.333-0.060-0.586-0.179-0.759-0.106-0.157-0.284-0.26-0.485-0.26-0.009 0-0.018 0-0.027 0.001l0.001-0c-0.007-0-0.016-0.001-0.025-0.001-0.201 0-0.378 0.102-0.482 0.256l-0.001 0.002c-0.119 0.17-0.179 0.42-0.181 0.749v0.155c0 0.324 0.060 0.576 0.179 0.755s0.29 0.268 0.514 0.268c0.008 0 0.017 0.001 0.026 0.001 0.2 0 0.375-0.101 0.479-0.255l0.001-0.002c0.118-0.173 0.177-0.424 0.179-0.755v-0.155zM23.936 26.348c0-0.006 0-0.012 0-0.018 0-0.107-0.051-0.203-0.13-0.264l-0.001-0.001c-0.087-0.067-0.244-0.137-0.471-0.21-0.209-0.065-0.388-0.139-0.558-0.227l0.019 0.009c-0.36-0.195-0.54-0.457-0.54-0.787 0-0.171 0.048-0.324 0.144-0.458 0.098-0.135 0.236-0.24 0.417-0.316s0.385-0.113 0.61-0.113c0.227 0 0.429 0.042 0.607 0.124s0.314 0.197 0.412 0.347c0.099 0.15 0.149 0.32 0.149 0.511h-0.655c0-0.146-0.045-0.258-0.137-0.338-0.092-0.082-0.22-0.123-0.386-0.123-0.159 0-0.284 0.034-0.372 0.103-0.082 0.058-0.134 0.152-0.134 0.259 0 0.003 0 0.005 0 0.008v-0c0 0.103 0.052 0.189 0.156 0.259s0.258 0.135 0.46 0.196c0.372 0.112 0.643 0.251 0.813 0.417s0.255 0.372 0.255 0.618c0 0.275-0.104 0.491-0.312 0.647s-0.487 0.234-0.839 0.234c-0.244 0-0.466-0.045-0.667-0.133-0.189-0.080-0.344-0.207-0.458-0.365l-0.002-0.003c-0.099-0.147-0.157-0.328-0.157-0.522 0-0.006 0-0.013 0-0.019v0.001h0.656c0 0.35 0.209 0.525 0.628 0.525 0.156 0 0.277-0.031 0.364-0.094 0.080-0.057 0.131-0.149 0.131-0.254 0-0.004-0-0.009-0-0.013l0 0.001zM27.427 24.537h-0.973v2.644h-0.654v-2.644h-0.959v-0.53h2.586v0.53zM29.712 25.805h-1.255v0.85h1.474v0.525h-2.128v-3.173h2.124v0.53h-1.469v0.756h1.255v0.513zM31.489 26.019h-0.521v1.162h-0.655v-3.173h1.18c0.375 0 0.664 0.083 0.868 0.251s0.305 0.403 0.305 0.708c0 0.216-0.048 0.397-0.141 0.543-0.105 0.152-0.25 0.271-0.419 0.341l-0.006 0.002 0.687 1.297v0.030h-0.702l-0.595-1.162zM30.968 25.489h0.528c0.164 0 0.291-0.042 0.381-0.124 0.084-0.082 0.136-0.197 0.136-0.323 0-0.008-0-0.017-0.001-0.025l0 0.001c0-0.15-0.042-0.268-0.129-0.353-0.084-0.086-0.214-0.129-0.39-0.129h-0.525v0.953zM34.931 26.062v1.119h-0.654v-3.173h1.238c0.238 0 0.448 0.043 0.628 0.131 0.182 0.087 0.321 0.211 0.418 0.372s0.147 0.342 0.147 0.548c0 0.311-0.107 0.557-0.321 0.737-0.212 0.179-0.506 0.268-0.883 0.268h-0.573zM34.931 25.533h0.584c0.173 0 0.305-0.041 0.394-0.123 0.092-0.081 0.138-0.197 0.138-0.348 0-0.007 0.001-0.015 0.001-0.023 0-0.137-0.053-0.262-0.139-0.355l0 0c-0.092-0.096-0.218-0.145-0.38-0.149h-0.599v0.997zM39.069 25.805h-1.255v0.85h1.474v0.525h-2.128v-3.173h2.124v0.53h-1.47v0.756h1.256v0.513zM42.105 24.537h-0.973v2.644h-0.654v-2.644h-0.959v-0.53h2.586v0.53zM44.389 25.805h-1.256v0.85h1.474v0.525h-2.127v-3.173h2.123v0.53h-1.47v0.756h1.256v0.513zM46.166 26.019h-0.521v1.162h-0.655v-3.173h1.18c0.375 0 0.665 0.083 0.868 0.251s0.305 0.403 0.305 0.708c0 0.216-0.048 0.397-0.141 0.543-0.105 0.152-0.25 0.271-0.419 0.341l-0.006 0.002 0.687 1.297v0.030h-0.703l-0.595-1.162zM45.645 25.489h0.527c0.164 0 0.292-0.042 0.382-0.124 0.084-0.082 0.136-0.197 0.136-0.323 0-0.008-0-0.017-0.001-0.025l0 0.001c0-0.15-0.043-0.268-0.129-0.353-0.084-0.086-0.214-0.129-0.391-0.129h-0.525v0.953zM49.489 26.348c0-0.005 0-0.012 0-0.018 0-0.108-0.051-0.204-0.131-0.264l-0.001-0.001c-0.088-0.067-0.244-0.137-0.471-0.21-0.209-0.065-0.388-0.139-0.558-0.227l0.019 0.009c-0.36-0.195-0.54-0.457-0.54-0.787 0-0.171 0.048-0.324 0.144-0.458s0.236-0.24 0.417-0.316c0.182-0.075 0.385-0.113 0.61-0.113 0.227 0 0.429 0.042 0.606 0.124s0.315 0.197 0.412 0.347c0.099 0.15 0.149 0.32 0.149 0.511h-0.655c0-0.146-0.045-0.258-0.137-0.338-0.092-0.082-0.22-0.123-0.386-0.123-0.16 0-0.284 0.034-0.372 0.103-0.082 0.058-0.134 0.152-0.134 0.259 0 0.003 0 0.005 0 0.008v-0c0 0.103 0.052 0.189 0.156 0.259s0.258 0.135 0.46 0.196c0.372 0.112 0.643 0.251 0.813 0.417s0.255 0.372 0.255 0.618c0 0.275-0.104 0.491-0.312 0.647s-0.487 0.234-0.839 0.234c-0.244 0-0.466-0.045-0.667-0.133-0.188-0.080-0.344-0.207-0.458-0.365l-0.002-0.003c-0.099-0.147-0.157-0.328-0.157-0.522 0-0.006 0-0.013 0-0.019v0.001h0.656c0 0.35 0.208 0.525 0.627 0.525 0.156 0 0.278-0.031 0.365-0.094 0.079-0.057 0.13-0.149 0.13-0.253 0-0.005-0-0.009-0-0.014l0 0.001z"></path>
</symbol>
<symbol id="icon-logo-customer-5" viewBox="0 0 40 32">
<path d="M3.133 26.513c0.155 0.192 0.237 0.431 0.232 0.678 0.001 0.016 0.001 0.034 0.001 0.052 0 0.319-0.139 0.606-0.36 0.803l-0.001 0.001c-0.258 0.197-0.585 0.316-0.94 0.316-0.037 0-0.074-0.001-0.11-0.004l0.005 0h-1.838v-4.297h1.8c0.030-0.002 0.066-0.003 0.102-0.003 0.336 0 0.647 0.108 0.9 0.292l-0.004-0.003c0.215 0.181 0.35 0.451 0.35 0.752 0 0.018-0.001 0.036-0.002 0.054l0-0.003c0.011 0.237-0.064 0.47-0.209 0.657-0.137 0.167-0.326 0.286-0.541 0.335l-0.006 0.001c0.244 0.045 0.464 0.175 0.621 0.367zM0.977 25.864h0.769c0.175 0.013 0.349-0.038 0.489-0.143 0.103-0.094 0.167-0.228 0.167-0.378 0-0.015-0.001-0.030-0.002-0.044l0 0.002c0.001-0.011 0.001-0.024 0.001-0.036 0-0.151-0.063-0.287-0.164-0.383l-0-0c-0.122-0.092-0.277-0.147-0.444-0.147-0.021 0-0.042 0.001-0.062 0.003l0.003-0h-0.758v1.127zM2.311 27.512c0.112-0.098 0.183-0.242 0.183-0.402 0-0.012-0-0.024-0.001-0.036l0 0.002c0.001-0.009 0.001-0.020 0.001-0.031 0-0.163-0.072-0.31-0.186-0.41l-0.001-0.001c-0.13-0.098-0.295-0.157-0.473-0.157-0.017 0-0.035 0.001-0.052 0.002l0.002-0h-0.807v1.182h0.818c0.014 0.001 0.030 0.001 0.046 0.001 0.176 0 0.34-0.056 0.472-0.152l-0.002 0.002zM6.812 28.36l-1.001-1.679h-0.376v1.679h-0.861v-4.297h1.631c0.033-0.002 0.072-0.004 0.112-0.004 0.39 0 0.748 0.139 1.026 0.371l-0.003-0.002c0.242 0.247 0.391 0.586 0.391 0.96 0 0.308-0.101 0.592-0.273 0.821l0.003-0.004c-0.196 0.225-0.465 0.382-0.77 0.435l-0.008 0.001 1.066 1.717h-0.937zM5.435 26.095h0.705c0.489 0 0.733-0.217 0.733-0.651 0.001-0.011 0.001-0.023 0.001-0.036 0-0.174-0.069-0.331-0.181-0.447l0 0c-0.131-0.11-0.302-0.177-0.488-0.177-0.023 0-0.046 0.001-0.068 0.003l0.003-0h-0.713l0.008 1.308zM11.521 27.495h-1.716l-0.303 0.865h-0.903l1.576-4.249h0.976l1.57 4.249h-0.903l-0.297-0.865zM11.291 26.844l-0.627-1.814-0.627 1.814h1.255zM17.414 28.36h-0.855l-1.917-2.922v2.922h-0.854v-4.297h0.853l1.917 2.939v-2.939h0.855v4.297zM22.294 27.331c-0.179 0.325-0.444 0.585-0.763 0.753l-0.010 0.005c-0.331 0.171-0.721 0.272-1.136 0.272-0.023 0-0.047-0-0.070-0.001l0.003 0h-1.522v-4.297h1.522c0.020-0.001 0.043-0.001 0.067-0.001 0.414 0 0.804 0.098 1.15 0.272l-0.015-0.007c0.327 0.165 0.597 0.427 0.774 0.749 0.169 0.328 0.268 0.716 0.268 1.127s-0.099 0.799-0.274 1.141l0.007-0.014zM21.316 27.228c0.235-0.274 0.378-0.633 0.378-1.025s-0.143-0.751-0.38-1.028l0.002 0.002c-0.26-0.229-0.602-0.368-0.978-0.368-0.033 0-0.065 0.001-0.097 0.003l0.004-0h-0.594v2.781h0.594c0.028 0.002 0.060 0.003 0.093 0.003 0.375 0 0.718-0.14 0.98-0.37l-0.002 0.001zM12.056 0.162s11.037 4.184 10.803 10.237v10.24s-11.028-4.186-10.799-10.24l-0.004-10.237zM32.691 18.242c1.976-1.381 4.363-2.311 6.946-2.589l0.066-0.006v-3.205c-2.951 1.164-5.357 3.179-6.977 5.74l-0.035 0.059z"></path>
<path d="M31.439 19.208c1.723-3.436 4.624-6.068 8.161-7.403l0.103-0.034v-9.236s-15.718 5.96-15.386 14.581v14.579s0.7-0.267 1.802-0.766c0-0.466 0-0.936 0.050-1.409 0.345-4.144 2.308-7.772 5.248-10.294l0.020-0.017z"></path>
<path d="M29.944 24.623c0.083-1.011 0.267-2.011 0.55-2.985-1.831 2.156-3.031 4.901-3.283 7.915l-0.003 0.052c-0.023 0.277-0.036 0.554-0.042 0.84 1.28-0.616 2.27-1.149 3.238-1.716l-0.215 0.116c-0.188-0.895-0.296-1.924-0.296-2.978 0-0.438 0.019-0.871 0.055-1.299l-0.004 0.056zM30.569 24.676c-0.031 0.354-0.048 0.766-0.048 1.182 0 0.934 0.088 1.847 0.257 2.731l-0.014-0.091c4.294-2.579 9.12-6.565 8.934-11.383v-0.42c-3.198 0.37-6.017 1.762-8.175 3.837l0.005-0.004c-0.494 1.216-0.834 2.625-0.954 4.097l-0.003 0.051z"></path>
</symbol>
<symbol id="icon-logo-customer-6" viewBox="0 0 62 32">
<path d="M31.123 14.854c-0.251-0.36-0.401-0.806-0.401-1.287 0-0.050 0.002-0.101 0.005-0.15l-0 0.007v-2.074c0-0.637 0.131-1.12 0.394-1.45s0.715-0.495 1.356-0.494c0.602 0 1.030 0.141 1.282 0.422 0.275 0.359 0.41 0.798 0.378 1.241v0.487h-1.076v-0.494c0-0.019 0.001-0.041 0.001-0.064 0-0.148-0.012-0.293-0.034-0.435l0.002 0.016c-0.017-0.115-0.073-0.214-0.153-0.287l-0-0c-0.095-0.071-0.215-0.113-0.345-0.113-0.016 0-0.032 0.001-0.048 0.002l0.002-0c-0.014-0.001-0.029-0.002-0.045-0.002-0.137 0-0.264 0.045-0.367 0.121l0.002-0.001c-0.090 0.081-0.154 0.19-0.178 0.313l-0.001 0.004c-0.031 0.169-0.045 0.341-0.042 0.513v2.518c-0.017 0.243 0.031 0.486 0.138 0.707 0.055 0.075 0.128 0.134 0.212 0.171l0.003 0.001c0.063 0.027 0.136 0.044 0.213 0.044 0.023 0 0.045-0.001 0.067-0.004l-0.003 0c0.013 0.001 0.029 0.002 0.044 0.002 0.128 0 0.245-0.044 0.338-0.117l-0.001 0.001c0.084-0.079 0.142-0.184 0.16-0.303l0-0.003c0.026-0.167 0.037-0.336 0.034-0.504v-0.511h1.076v0.466c0.003 0.038 0.004 0.083 0.004 0.129 0 0.441-0.141 0.85-0.38 1.182l0.004-0.006c-0.247 0.308-0.669 0.462-1.288 0.462s-1.088-0.164-1.354-0.506zM35.608 14.876c-0.272-0.323-0.408-0.794-0.408-1.416v-2.183c0-0.616 0.136-1.082 0.408-1.399s0.726-0.474 1.364-0.473c0.633 0 1.085 0.158 1.358 0.473 0.271 0.317 0.41 0.783 0.41 1.399v2.183c0 0.616-0.139 1.089-0.415 1.414s-0.726 0.487-1.353 0.487c-0.626 0-1.090-0.164-1.364-0.485zM37.473 14.352c0.097-0.202 0.142-0.424 0.129-0.646v-2.672c0.001-0.021 0.002-0.047 0.002-0.072 0-0.204-0.048-0.397-0.133-0.569l0.003 0.007c-0.056-0.076-0.13-0.136-0.216-0.173l-0.003-0.001c-0.062-0.027-0.135-0.042-0.211-0.042-0.026 0-0.051 0.002-0.076 0.005l0.003-0c-0.022-0.003-0.047-0.005-0.073-0.005-0.077 0-0.15 0.016-0.216 0.044l0.004-0.001c-0.090 0.038-0.165 0.098-0.22 0.172l-0.001 0.001c-0.097 0.197-0.142 0.415-0.129 0.633v2.685c-0.014 0.223 0.031 0.444 0.129 0.646 0.063 0.067 0.138 0.121 0.223 0.158l0.004 0.002c0.082 0.036 0.177 0.057 0.277 0.057s0.195-0.021 0.281-0.059l-0.005 0.002c0.089-0.039 0.164-0.093 0.226-0.16l0-0v-0.013zM40.035 9.468h1.16l0.872 4.028 0.892-4.028h1.128l0.113 5.813h-0.833l-0.089-4.040-0.861 4.040h-0.669l-0.892-4.054-0.083 4.054h-0.843l0.104-5.812zM45.5 9.468h1.806c1.041 0 1.561 0.55 1.561 1.651 0 1.054-0.548 1.58-1.643 1.579h-0.616v2.583h-1.114l0.007-5.812zM47.043 11.952c0.11 0.014 0.222 0.004 0.328-0.028s0.203-0.085 0.285-0.155c0.128-0.197 0.184-0.427 0.161-0.657 0.001-0.019 0.001-0.042 0.001-0.064 0-0.164-0.020-0.324-0.057-0.476l0.003 0.014c-0.017-0.062-0.045-0.115-0.083-0.161l0.001 0.001c-0.039-0.047-0.085-0.086-0.138-0.116l-0.002-0.001c-0.129-0.059-0.279-0.094-0.438-0.094-0.021 0-0.042 0.001-0.063 0.002l0.003-0h-0.433v1.736h0.433zM50.474 9.468h1.197l1.229 5.813h-1.039l-0.243-1.341h-1.068l-0.25 1.341h-1.054l1.229-5.812zM51.497 13.267l-0.417-2.44-0.417 2.44h0.834zM53.891 9.468h0.781l1.494 3.316v-3.316h0.925v5.812h-0.742l-1.503-3.462v3.462h-0.957l0.002-5.812zM59.258 13.064l-1.242-3.588h1.046l0.758 2.305 0.711-2.305h1.023l-1.226 3.588v2.216h-1.070v-2.216zM32.845 17.822v0.304h-0.91v2.362h-0.381v-2.362h-0.914v-0.304h2.205zM35.697 20.488h-0.294c-0.002 0-0.005 0-0.008 0-0.028 0-0.054-0.010-0.075-0.026l0 0c-0.022-0.015-0.038-0.036-0.048-0.060l-0-0.001-0.263-0.633h-1.262l-0.263 0.633c-0.008 0.028-0.022 0.052-0.040 0.072l0-0c-0.021 0.016-0.047 0.025-0.076 0.025-0.002 0-0.005-0-0.007-0h-0.294l1.115-2.666h0.387l1.128 2.655zM33.85 19.498h1.053l-0.445-1.085c-0.028-0.067-0.057-0.15-0.080-0.236l-0.003-0.014-0.042 0.141-0.040 0.111-0.442 1.083zM37.619 20.226c0.070 0.003 0.139 0.003 0.209 0 0.061-0.006 0.12-0.017 0.179-0.032 0.064-0.015 0.117-0.032 0.169-0.052l-0.009 0.003c0.049-0.019 0.098-0.042 0.15-0.065v-0.6h-0.446c-0.002 0-0.003 0-0.005 0-0.021 0-0.041-0.008-0.055-0.021l0 0c-0.014-0.011-0.022-0.028-0.022-0.047 0-0.001 0-0.001 0-0.002v0-0.205h0.865v1.022c-0.135 0.092-0.291 0.166-0.459 0.214l-0.012 0.003c-0.079 0.023-0.173 0.043-0.27 0.055l-0.009 0.001c-0.096 0.011-0.208 0.017-0.321 0.017-0.001 0-0.003 0-0.004 0h0c-0.004 0-0.008 0-0.013 0-0.197 0-0.386-0.037-0.56-0.103l0.011 0.004c-0.173-0.067-0.321-0.161-0.446-0.279l0.001 0.001c-0.12-0.117-0.218-0.258-0.285-0.414l-0.003-0.008c-0.065-0.158-0.102-0.342-0.102-0.534 0-0.007 0-0.013 0-0.020v0.001c-0-0.006-0-0.012-0-0.019 0-0.194 0.037-0.379 0.104-0.549l-0.004 0.010c0.064-0.158 0.162-0.301 0.287-0.422 0.127-0.12 0.279-0.214 0.446-0.277 0.191-0.068 0.394-0.102 0.598-0.099 0.104 0 0.207 0.007 0.31 0.023 0.090 0.014 0.179 0.036 0.264 0.067 0.079 0.028 0.153 0.063 0.223 0.106 0.069 0.042 0.134 0.088 0.195 0.139l-0.108 0.165c-0.009 0.015-0.021 0.027-0.036 0.036l-0 0c-0.015 0.009-0.032 0.014-0.051 0.014h-0c-0.026-0.001-0.049-0.008-0.069-0.021l0.001 0c-0.044-0.023-0.080-0.043-0.114-0.066l0.005 0.003c-0.042-0.026-0.092-0.050-0.143-0.070l-0.007-0.002c-0.057-0.023-0.126-0.043-0.197-0.058l-0.008-0.001c-0.081-0.015-0.173-0.023-0.268-0.023-0.005 0-0.011 0-0.016 0h0.001c-0.004-0-0.009-0-0.013-0-0.15 0-0.293 0.027-0.425 0.077l0.008-0.003c-0.128 0.049-0.237 0.121-0.328 0.211l0-0c-0.093 0.096-0.163 0.209-0.207 0.332-0.047 0.132-0.075 0.285-0.075 0.444s0.027 0.312 0.078 0.454l-0.003-0.009c0.049 0.125 0.125 0.24 0.223 0.335 0.092 0.092 0.202 0.163 0.326 0.211 0.142 0.046 0.292 0.064 0.442 0.053zM41.172 20.184h1.217v0.304h-1.59v-2.666h0.381l-0.009 2.362zM43.656 20.487h-0.381v-2.664h0.381v2.666zM45.074 17.834c0.022 0.013 0.042 0.029 0.058 0.049l1.63 2.010c-0.001-0.014-0.002-0.031-0.002-0.048s0.001-0.033 0.002-0.050l-0 0.002v-1.986h0.333v2.676h-0.192c-0.004 0-0.009 0.001-0.013 0.001-0.025 0-0.049-0.006-0.071-0.016l0.001 0c-0.023-0.014-0.043-0.031-0.060-0.050l-0-0-1.628-2.007v2.072h-0.319v-2.665h0.198c0.022 0 0.043 0.004 0.063 0.013zM49.901 17.822v0.294h-1.351v0.88h1.095v0.282h-1.095v0.91h1.351v0.294h-1.743v-2.659h1.743zM9.95 1.359l16.929 4.55v15.946l-16.927-4.547v-15.949zM8.865 0v18.081l19.098 5.135v-18.080l-19.098-5.137z"></path>
<path  d="M19.1 31.61l-19.1-5.139v-18.080l19.1 5.137v18.082z"></path>
<path  d="M9.181 1.155l16.707 4.493-7.105 6.728-16.71-4.495 7.107-6.727zM8.865 0l-8.865 8.392 19.1 5.137 8.863-8.392-19.098-5.137zM20.175 30.593l7.787-7.374-7.787-2.096v9.47z"></path>
</symbol>
</defs>
</svg>
