<svg width="83" height="83" viewBox="0 0 83 83" fill="none" xmlns="http://www.w3.org/2000/svg">
<path d="M82.5306 41.2834C82.5306 52.6188 77.936 62.881 70.5076 70.3095C63.0792 77.7379 52.817 82.3324 41.4816 82.3324C30.1462 82.3324 19.884 77.7379 12.4556 70.3095C5.02718 62.881 0.432617 52.6188 0.432617 41.2834C0.432617 29.9481 5.02718 19.6858 12.4556 12.2574C19.884 4.829 30.1462 0.234436 41.4816 0.234436C52.817 0.234436 63.0792 4.829 70.5076 12.2574C77.936 19.6858 82.5306 29.9481 82.5306 41.2834Z" fill="white" fill-opacity="0.1"/>
<g clip-path="url(#clip0)">
<path d="M47.6963 28.821H51.1031V22.8876C50.5153 22.8067 48.494 22.6248 46.1399 22.6248C41.228 22.6248 37.8632 25.7143 37.8632 31.3928V36.6188H32.4429V43.2519H37.8632V59.9421H44.5088V43.2535H49.7099L50.5355 36.6203H44.5072V32.0505C44.5088 30.1333 45.025 28.821 47.6963 28.821Z" fill="white"/>
</g>
<defs>
<clipPath id="clip0">
<rect width="37.3173" height="37.3173" fill="white" transform="translate(22.8228 22.6248)"/>
</clipPath>
</defs>
</svg>
