<svg width="84" height="83" viewBox="0 0 84 83" fill="none" xmlns="http://www.w3.org/2000/svg">
<path d="M83.0174 41.2835C83.0174 52.6188 78.4229 62.8811 70.9945 70.3095C63.566 77.7379 53.3038 82.3325 41.9684 82.3325C30.6331 82.3325 20.3708 77.7379 12.9424 70.3095C5.514 62.8811 0.919434 52.6188 0.919434 41.2835C0.919434 29.9481 5.514 19.6858 12.9424 12.2574C20.3708 4.82903 30.6331 0.234467 41.9684 0.234467C53.3038 0.234467 63.566 4.82903 70.9945 12.2574C78.4229 19.6858 83.0174 29.9481 83.0174 41.2835Z" fill="white" fill-opacity="0.1"/>
<g clip-path="url(#clip0)">
<path d="M60.5902 33.5962C60.5028 31.6134 60.1821 30.2502 59.7228 29.069C59.2489 27.8152 58.5199 26.6927 57.5648 25.7595C56.6317 24.8118 55.5017 24.0754 54.2624 23.609C53.0744 23.1496 51.7184 22.829 49.7356 22.7416C47.7379 22.6467 47.1038 22.6248 42.0373 22.6248C36.9707 22.6248 36.3366 22.6467 34.3464 22.7342C32.3636 22.8216 31.0004 23.1425 29.8195 23.6016C28.5654 24.0754 27.4428 24.8044 26.5097 25.7595C25.562 26.6927 24.8259 27.8226 24.3591 29.0619C23.8998 30.2502 23.5792 31.606 23.4918 33.5888C23.3969 35.5864 23.375 36.2206 23.375 41.2871C23.375 46.3536 23.3969 46.9878 23.4843 48.978C23.5718 50.9608 23.8927 52.324 24.352 53.5052C24.8259 54.759 25.562 55.8815 26.5097 56.8147C27.4428 57.7624 28.5728 58.4988 29.8121 58.9652C31.0004 59.4246 32.3562 59.7452 34.3392 59.8326C36.3292 59.9203 36.9636 59.942 42.0301 59.942C47.0967 59.942 47.7308 59.9203 49.721 59.8326C51.7038 59.7452 53.067 59.4246 54.2479 58.9652C56.7558 57.9956 58.7386 56.0128 59.7083 53.5052C60.1673 52.3169 60.4882 50.9608 60.5757 48.978C60.6631 46.9878 60.685 46.3536 60.685 41.2871C60.685 36.2206 60.6776 35.5864 60.5902 33.5962ZM57.2297 48.8322C57.1494 50.6547 56.8433 51.6388 56.5881 52.2949C55.9611 53.9206 54.6708 55.2109 53.0451 55.838C52.389 56.0931 51.3977 56.3992 49.5824 56.4792C47.6141 56.567 47.0238 56.5886 42.0447 56.5886C37.0656 56.5886 36.4679 56.567 34.5067 56.4792C32.6842 56.3992 31.7001 56.0931 31.044 55.838C30.235 55.539 29.4986 55.0651 28.9008 54.4455C28.2812 53.8403 27.8073 53.1113 27.5083 52.3023C27.2532 51.6462 26.9471 50.6547 26.8671 48.8396C26.7793 46.8713 26.7577 46.2807 26.7577 41.3016C26.7577 36.3225 26.7793 35.7248 26.8671 33.7639C26.9471 31.9414 27.2532 30.9573 27.5083 30.3012C27.8073 29.4919 28.2812 28.7558 28.9082 28.1578C29.5131 27.5381 30.2421 27.0643 31.0514 26.7656C31.7075 26.5104 32.699 26.2043 34.5141 26.124C36.4824 26.0366 37.073 26.0146 42.0518 26.0146C47.0383 26.0146 47.6286 26.0366 49.5898 26.124C51.4122 26.2043 52.3964 26.5104 53.0525 26.7656C53.8615 27.0643 54.5979 27.5381 55.1956 28.1578C55.8153 28.7629 56.2891 29.4919 56.5881 30.3012C56.8433 30.9573 57.1494 31.9486 57.2297 33.7639C57.3171 35.7322 57.339 36.3225 57.339 41.3016C57.339 46.2807 57.3171 46.8639 57.2297 48.8322Z" fill="white"/>
<path d="M42.0375 31.7007C36.7451 31.7007 32.4512 35.9944 32.4512 41.287C32.4512 46.5797 36.7451 50.8733 42.0375 50.8733C47.3301 50.8733 51.6237 46.5797 51.6237 41.287C51.6237 35.9944 47.3301 31.7007 42.0375 31.7007ZM42.0375 47.5054C38.6041 47.5054 35.8191 44.7207 35.8191 41.287C35.8191 37.8534 38.6041 35.0686 42.0375 35.0686C45.4711 35.0686 48.2558 37.8534 48.2558 41.287C48.2558 44.7207 45.4711 47.5054 42.0375 47.5054Z" fill="white"/>
<path d="M54.2414 31.3218C54.2414 32.5577 53.2393 33.5598 52.0031 33.5598C50.7672 33.5598 49.7651 32.5577 49.7651 31.3218C49.7651 30.0856 50.7672 29.0838 52.0031 29.0838C53.2393 29.0838 54.2414 30.0856 54.2414 31.3218Z" fill="white"/>
</g>
<defs>
<clipPath id="clip0">
<rect width="37.3173" height="37.3173" fill="white" transform="translate(23.3096 22.6248)"/>
</clipPath>
</defs>
</svg>
