<svg width="83" height="83" viewBox="0 0 83 83" fill="none" xmlns="http://www.w3.org/2000/svg">
<path d="M82.7743 41.2834C82.7743 52.6188 78.1797 62.881 70.7513 70.3095C63.3229 77.7379 53.0606 82.3324 41.7253 82.3324C30.3899 82.3324 20.1276 77.7379 12.6992 70.3095C5.27083 62.881 0.67627 52.6188 0.67627 41.2834C0.67627 29.9481 5.27083 19.6858 12.6992 12.2574C20.1276 4.829 30.3899 0.234436 41.7253 0.234436C53.0606 0.234436 63.3229 4.829 70.7513 12.2574C78.1797 19.6858 82.7743 29.9481 82.7743 41.2834Z" fill="#2196F3"/>
<g clip-path="url(#clip0)">
<path d="M60.3842 29.7127C58.9964 30.3215 57.5177 30.725 55.9761 30.9209C57.562 29.974 58.7725 28.4859 59.3416 26.6924C57.8629 27.574 56.2303 28.1967 54.4904 28.5442C53.0863 27.0492 51.0852 26.1233 48.9021 26.1233C44.6666 26.1233 41.2567 29.5611 41.2567 33.7757C41.2567 34.3821 41.308 34.9652 41.434 35.5202C35.0737 35.21 29.4458 32.1617 25.6651 27.518C25.0051 28.6632 24.6179 29.974 24.6179 31.385C24.6179 34.0346 25.9823 36.3832 28.0161 37.743C26.787 37.7196 25.5811 37.3628 24.5596 36.8007C24.5596 36.824 24.5596 36.8543 24.5596 36.8847C24.5596 40.6024 27.2114 43.6904 30.6889 44.4018C30.0662 44.572 29.3875 44.6536 28.6831 44.6536C28.1934 44.6536 27.6989 44.6257 27.2348 44.523C28.226 47.5527 31.0388 49.7801 34.3834 49.8524C31.7805 51.8885 28.4756 53.1153 24.8978 53.1153C24.2704 53.1153 23.6686 53.0873 23.0669 53.0104C26.4558 55.1958 30.472 56.4436 34.8032 56.4436C48.8811 56.4436 56.5778 44.7819 56.5778 34.6736C56.5778 34.3354 56.5661 34.0089 56.5498 33.6847C58.0682 32.6072 59.3439 31.2614 60.3842 29.7127Z" fill="white"/>
</g>
<defs>
<clipPath id="clip0">
<rect width="37.3173" height="37.3173" fill="white" transform="translate(23.0669 22.6248)"/>
</clipPath>
</defs>
</svg>
