<svg width="83" height="83" viewBox="0 0 83 83" fill="none" xmlns="http://www.w3.org/2000/svg">
<path d="M82.2874 41.2834C82.2874 52.6188 77.6929 62.881 70.2645 70.3095C62.8361 77.7379 52.5738 82.3324 41.2384 82.3324C29.9031 82.3324 19.6408 77.7379 12.2124 70.3095C4.78402 62.881 0.189453 52.6188 0.189453 41.2834C0.189453 29.9481 4.78402 19.6858 12.2124 12.2574C19.6408 4.829 29.9031 0.234436 41.2384 0.234436C52.5738 0.234436 62.8361 4.829 70.2645 12.2574C77.6929 19.6858 82.2874 29.9481 82.2874 41.2834Z" fill="white" fill-opacity="0.1"/>
<g clip-path="url(#clip0)">
<path d="M59.8883 59.9421V59.9406H59.8976V46.2545C59.8976 39.5591 58.4563 34.4016 50.629 34.4016C46.8661 34.4016 44.341 36.4665 43.3101 38.4241H43.2013V35.0266H35.7798V59.9406H43.5076V47.6041C43.5076 44.356 44.1233 41.2151 48.1458 41.2151C52.1092 41.2151 52.1683 44.9219 52.1683 47.8125V59.9421H59.8883Z" fill="white"/>
<path d="M23.1958 35.028H30.9329V59.942H23.1958V35.028Z" fill="white"/>
<path d="M27.0613 22.6248C24.5874 22.6248 22.5801 24.6321 22.5801 27.106C22.5801 29.5798 24.5874 31.6291 27.0613 31.6291C29.5351 31.6291 31.5424 29.5798 31.5424 27.106C31.5409 24.6321 29.5335 22.6248 27.0613 22.6248V22.6248Z" fill="white"/>
</g>
<defs>
<clipPath id="clip0">
<rect width="37.3173" height="37.3173" fill="white" transform="translate(22.5801 22.6248)"/>
</clipPath>
</defs>
</svg>
