<svg width="38" height="38" viewBox="0 0 38 38" fill="none" xmlns="http://www.w3.org/2000/svg">
<g clip-path="url(#clip0)">
<path d="M37.3329 7.56016C35.9452 8.1689 34.4665 8.57239 32.9248 8.7683C34.5108 7.82138 35.7213 6.33335 36.2903 4.53979C34.8116 5.42141 33.179 6.04414 31.4391 6.39166C30.035 4.89664 28.0339 3.9707 25.8508 3.9707C21.6153 3.9707 18.2055 7.40856 18.2055 11.6231C18.2055 12.2295 18.2568 12.8126 18.3827 13.3677C12.0225 13.0575 6.39455 10.0091 2.61384 5.36544C1.95379 6.51061 1.56662 7.82138 1.56662 9.23244C1.56662 11.882 2.93104 14.2306 4.96483 15.5904C3.73569 15.567 2.52988 15.2102 1.50832 14.6481C1.50832 14.6714 1.50832 14.7017 1.50832 14.7321C1.50832 18.4498 4.16017 21.5378 7.63768 22.2492C7.01495 22.4194 6.33624 22.5011 5.63187 22.5011C5.14208 22.5011 4.64763 22.4731 4.1835 22.3704C5.17474 25.4001 7.98753 27.6275 11.3321 27.6998C8.72921 29.7359 5.4243 30.9627 1.8465 30.9627C1.21911 30.9627 0.617366 30.9348 0.015625 30.8578C3.4045 33.0432 7.42077 34.291 11.7519 34.291C25.8298 34.291 33.5265 22.6293 33.5265 12.521C33.5265 12.1828 33.5149 11.8563 33.4985 11.5321C35.0169 10.4546 36.2927 9.10882 37.3329 7.56016Z" fill="#AFB1B8"/>
</g>
<defs>
<clipPath id="clip0">
<rect width="37.3173" height="37.3173" fill="white" transform="translate(0.015625 0.472229)"/>
</clipPath>
</defs>
</svg>
