<svg width="132" height="132" viewBox="0 0 132 132" fill="none" xmlns="http://www.w3.org/2000/svg">
<g clip-path="url(#clip0)">
<path d="M126.35 91.0177L91.8887 56.3037L95.7134 37.4653C96.7004 37.8506 97.7496 38.0519 98.8089 38.0596H98.835C103.701 38.117 107.693 34.2188 107.751 29.3525C107.808 24.4862 103.91 20.4946 99.0435 20.437C94.1771 20.3795 90.1856 24.2777 90.1279 29.144C90.1157 30.1854 90.2879 31.2205 90.637 32.2017L70.3924 34.6724L37.3697 1.47776C36.9646 1.06443 36.4117 0.829333 35.8329 0.824707C35.2615 0.8277 34.7143 1.05518 34.3091 1.45817L28.1356 7.59686C27.2858 8.44692 27.2858 9.82486 28.1356 10.6749L31.4575 14.0447C18.588 37.7094 22.768 67.0145 41.7408 86.1373C41.915 86.3038 42.1169 86.4385 42.3373 86.5356C42.2002 87.2722 42.1286 88.0197 42.124 88.7691V114.02H16.0019C9.9938 114.028 5.12475 118.897 5.11768 124.905V129.258C5.11768 130.46 6.09236 131.435 7.29452 131.435H107.429C108.631 131.435 109.606 130.46 109.606 129.258V124.905C109.599 118.897 104.73 114.028 98.7218 114.02H72.5997V102.829C76.6919 103.688 80.8614 104.125 85.0426 104.135C95.0756 104.125 104.949 101.623 113.777 96.856L117.116 100.215C117.521 100.628 118.074 100.863 118.653 100.868C119.224 100.865 119.772 100.637 120.177 100.234L126.35 94.0958C127.2 93.2458 127.2 91.8678 126.35 91.0177ZM95.7657 26.2654C97.4704 24.5697 100.227 24.5773 101.923 26.282C103.618 27.9868 103.611 30.7435 101.906 32.439C101.09 33.2507 99.9858 33.7062 98.8348 33.7059H98.8217C96.4174 33.6934 94.4781 31.7342 94.4906 29.3296C94.4966 28.1786 94.9581 27.0771 95.7741 26.2654H95.7657ZM90.6414 40.5695L88.199 52.5922L83.4012 47.7661L90.6414 40.5695ZM88.1685 36.8884L80.3319 44.6793L74.2694 38.5842L88.1685 36.8884ZM98.7218 118.374C102.329 118.374 105.252 121.298 105.252 124.905V127.081H9.47136V124.905C9.47136 121.298 12.3951 118.374 16.0019 118.374H98.7218ZM68.2461 109.667V114.02H46.4776V109.667H68.2461ZM46.4776 105.313V88.7691C46.4776 83.4881 51.3603 79.191 57.3619 79.191C63.3634 79.191 68.2461 83.4881 68.2461 88.7691V105.313H46.4776ZM72.5997 98.3907V88.7691C72.5997 81.087 65.7645 74.8373 57.3619 74.8373C51.929 74.754 46.8488 77.5194 43.9699 82.1275C27.408 64.6837 23.6785 38.6783 34.6696 17.283L110.594 93.643C98.8704 99.607 85.4309 101.286 72.5997 98.3907ZM118.677 95.6L115.61 92.5154L35.8111 12.2357L32.7309 9.14895L35.8111 6.0796L68.1982 38.6495C68.2134 38.6495 68.2221 38.6778 68.2374 38.6887L121.766 92.5307L118.677 95.6Z" fill="#212121"/>
<path d="M57.3812 83.5447H57.3616C53.7549 83.5392 50.8267 86.4587 50.8213 90.0654C50.8159 93.6722 53.7353 96.6003 57.342 96.6057H57.3616C60.9684 96.6112 63.8965 93.6918 63.9019 90.085C63.9074 86.4783 60.988 83.5501 57.3812 83.5447ZM58.905 91.6186C58.4952 92.0262 57.9398 92.2542 57.3616 92.2521C56.1595 92.2458 55.1899 91.2662 55.1962 90.0641C55.1992 89.4886 55.4299 88.9378 55.8378 88.5318C56.243 88.1288 56.7902 87.9014 57.3616 87.8984C58.5638 87.9046 59.5333 88.8842 59.527 90.0864C59.524 90.6619 59.2933 91.2126 58.8854 91.6186H58.905Z" fill="#2196F3"/>
</g>
<defs>
<clipPath id="clip0">
<rect width="130.61" height="130.61" fill="white" transform="translate(0.74707 0.824707)"/>
</clipPath>
</defs>
</svg>
