<svg width="131" height="132" viewBox="0 0 131 132" fill="none" xmlns="http://www.w3.org/2000/svg">
<g clip-path="url(#clip0)">
<path d="M130.529 19.2903C130.272 18.5044 129.593 17.9299 128.772 17.81L120.975 16.6758L117.485 9.60969C116.754 8.12066 114.313 8.12066 113.582 9.60969L110.092 16.6758L102.295 17.8102C101.474 17.9299 100.795 18.5026 100.536 19.2906C100.281 20.0786 100.492 20.9449 101.087 21.522L106.731 27.023L105.399 34.7901C105.26 35.6064 105.595 36.4314 106.263 36.9192C106.94 37.4113 107.824 37.472 108.558 37.0845L115.533 33.4164L122.507 37.0845C122.825 37.2521 123.176 37.3347 123.522 37.3347C123.972 37.3347 124.423 37.1955 124.802 36.9189C125.472 36.4314 125.808 35.6062 125.666 34.7898L124.334 27.0227L129.979 21.5217C130.57 20.9426 130.784 20.0783 130.529 19.2903ZM120.476 24.7064C119.965 25.2049 119.729 25.9276 119.851 26.6329L120.631 31.1804L116.547 29.034C116.229 28.8664 115.881 28.7837 115.533 28.7837C115.184 28.7837 114.838 28.8664 114.518 29.034L110.434 31.1804L111.213 26.6329C111.335 25.9276 111.1 25.2072 110.589 24.7064L107.282 21.4847L111.849 20.8207C112.559 20.7184 113.171 20.2722 113.488 19.6299L115.53 15.4939L117.572 19.6299C117.89 20.272 118.502 20.7184 119.211 20.8207L123.778 21.4847L120.476 24.7064Z" fill="#2196F3"/>
<path d="M106.689 84.5879H102.335V88.9417H106.689V84.5879Z" fill="#2196F3"/>
<path d="M106.689 93.2954H102.335V97.6492H106.689V93.2954Z" fill="#2196F3"/>
<path d="M111.043 88.9417H106.689V93.2955H111.043V88.9417Z" fill="#2196F3"/>
<path d="M102.336 88.9417H97.9824V93.2955H102.336V88.9417Z" fill="#2196F3"/>
<path d="M91.4519 108.533H87.0981V112.887H91.4519V108.533Z" fill="#2196F3"/>
<path d="M91.4519 117.241H87.0981V121.595H91.4519V117.241Z" fill="#2196F3"/>
<path d="M95.805 112.887H91.4512V117.241H95.805V112.887Z" fill="#2196F3"/>
<path d="M87.098 112.887H82.7441V117.241H87.098V112.887Z" fill="#2196F3"/>
<path d="M65.3289 99.8262H60.9751V104.18H65.3289V99.8262Z" fill="#2196F3"/>
<path d="M65.3289 108.533H60.9751V112.887H65.3289V108.533Z" fill="#2196F3"/>
<path d="M69.6829 104.18H65.3291V108.534H69.6829V104.18Z" fill="#2196F3"/>
<path d="M60.9749 104.18H56.6211V108.534H60.9749V104.18Z" fill="#2196F3"/>
<path d="M23.9686 25.8123H19.6147V30.1661H23.9686V25.8123Z" fill="#2196F3"/>
<path d="M23.9686 34.5198H19.6147V38.8736H23.9686V34.5198Z" fill="#2196F3"/>
<path d="M28.3221 30.166H23.9683V34.5199H28.3221V30.166Z" fill="#2196F3"/>
<path d="M19.6146 30.166H15.2607V34.5199H19.6146V30.166Z" fill="#2196F3"/>
<path d="M100.899 58.6177C99.7259 57.0351 98.0039 56.0164 96.0491 55.742C94.0855 55.4634 92.148 55.9792 90.5807 57.1787L85.4715 61.0948L85.4692 61.0971L77.7238 66.881L72.1814 64.6736C82.0643 60.2394 88.9717 50.3542 88.9717 38.8777C88.9717 23.2738 76.2261 10.5784 60.5592 10.5784C44.8923 10.5784 32.1469 23.2738 32.1469 38.8777C32.1469 44.5333 33.8382 49.7925 36.7183 54.218L25.4377 54.12C25.4311 54.12 25.4247 54.12 25.4181 54.12C25.3831 54.12 25.355 54.1374 25.3224 54.1397C25.1068 54.1483 24.8956 54.192 24.689 54.2659C24.6367 54.2856 24.5823 54.2966 24.5323 54.3203C24.5063 54.3312 24.48 54.3333 24.454 54.3463L11.2578 60.8616C11.2555 60.8616 11.2535 60.8616 11.2535 60.8637L3.52541 64.58C3.44046 64.617 3.35347 64.667 3.26852 64.7236C0.188157 66.7741 -0.861079 70.8014 0.826169 74.0928C1.72515 75.843 3.25551 77.1318 5.13638 77.7216C5.86138 77.9479 6.60144 78.0591 7.33715 78.0591C8.5193 78.0591 9.69047 77.7695 10.7634 77.1971L16.4277 74.1843L25.6686 69.4127L31.2066 69.38L8.99583 91.4841C8.99379 91.4864 8.99149 91.4864 8.9892 91.4884L3.52515 96.9305C2.23433 98.215 1.52464 99.9193 1.52464 101.737C1.52464 103.553 2.23433 105.261 3.52515 106.548C4.85092 107.867 6.59455 108.529 8.33817 108.529C10.0841 108.529 11.8254 107.867 13.1555 106.548L18.5193 101.206L25.6247 95.901L29.3015 99.5624L22.1112 106.722C22.1091 106.724 22.1068 106.724 22.1045 106.726L16.6405 112.169C15.3497 113.453 14.64 115.157 14.64 116.975C14.64 118.791 15.3497 120.499 16.6405 121.786C17.9663 123.105 19.7122 123.767 21.4558 123.767C23.1994 123.767 24.9454 123.105 26.2732 121.786L31.7392 116.344L40.4836 107.637C40.4859 107.634 40.4859 107.632 40.488 107.63L44.6089 103.548L44.5936 103.533C44.6196 103.507 44.6566 103.498 44.6829 103.47L65.7681 80.3757L79.9353 82.3915C80.0376 82.4068 80.1398 82.4132 80.2421 82.4132C80.5057 82.4132 80.7603 82.3502 81.0062 82.2565C81.0781 82.2305 81.1411 82.1956 81.2087 82.1609C81.287 82.1216 81.3697 82.0999 81.4439 82.0499L94.5595 73.3425C94.6075 73.3098 94.6335 73.2575 94.6792 73.2229C94.7315 73.1815 94.7968 73.1642 94.8445 73.1183L100.034 68.2573C102.734 65.7272 103.106 61.5825 100.899 58.6177ZM8.7193 73.355C8.0119 73.7338 7.20858 73.8098 6.44021 73.5662C5.67822 73.329 5.06011 72.8086 4.69863 72.1055C4.04123 70.8254 4.42209 69.2667 5.57363 68.4244L10.9354 65.8448L12.2262 69.6172L12.7683 71.2019L8.7193 73.355ZM22.993 65.895L16.6736 69.1604L15.631 66.1126L14.8823 63.9226L23.1545 59.8387L22.993 65.895ZM84.6225 38.8733C84.6225 42.6218 83.7279 46.1573 82.1779 49.32L65.1112 41.5682C64.9327 39.2282 63.7181 37.1797 61.8939 35.9039L67.8694 16.0661C77.574 19.1531 84.6225 28.2067 84.6225 38.8733ZM36.5051 38.8733C36.5051 25.6705 47.2979 14.9276 60.5638 14.9276C61.5957 14.9276 62.6056 15.0146 63.6049 15.1409L57.76 34.5435C57.6816 34.5412 57.6077 34.5195 57.527 34.5195C53.3125 34.5195 49.8839 37.9371 49.8839 42.1386C49.8839 46.3399 53.3125 49.7578 57.527 49.7578C60.3612 49.7578 62.8102 48.1927 64.1317 45.9024L79.8965 53.0644C75.51 58.968 68.4896 62.819 60.5635 62.819C47.2979 62.819 36.5051 52.0761 36.5051 38.8733ZM60.8163 42.1386C60.8163 43.9389 59.3403 45.4039 57.527 45.4039C55.7138 45.4039 54.2378 43.9389 54.2378 42.1386C54.2378 40.3384 55.7138 38.8733 57.527 38.8733C59.3403 38.8733 60.8163 40.3384 60.8163 42.1386ZM10.0844 103.461C9.12006 104.417 7.55909 104.415 6.5971 103.463C6.13332 103 5.87873 102.388 5.87873 101.737C5.87873 101.088 6.13332 100.477 6.5971 100.018L10.5239 96.1055L13.9981 99.5647L10.0844 103.461ZM23.202 118.699C22.2377 119.655 20.6747 119.657 19.7124 118.702C19.2487 118.238 18.9941 117.627 18.9941 116.975C18.9941 116.327 19.2487 115.715 19.7124 115.256L23.6418 111.342L25.2854 112.977L27.1183 114.801L23.202 118.699ZM37.4127 104.541C37.4104 104.543 37.4084 104.543 37.4061 104.545L30.2028 111.729L28.5591 110.094L26.7262 108.27L33.9229 101.106C33.9229 101.106 33.9229 101.106 33.9229 101.104C33.9252 101.101 33.9273 101.101 33.9296 101.099C34.0928 100.936 34.1951 100.74 34.2954 100.547C34.3237 100.49 34.378 100.442 34.402 100.383C34.4696 100.216 34.4803 100.035 34.5066 99.8586C34.5196 99.7584 34.5632 99.665 34.5632 99.5624C34.5632 99.4165 34.5109 99.2752 34.4806 99.1313C34.4546 99.0007 34.4546 98.8678 34.4043 98.7418C34.3216 98.5372 34.1801 98.3566 34.0321 98.18C33.9908 98.1321 33.9755 98.0711 33.9298 98.0255C33.9298 98.0255 33.9298 98.0255 33.9275 98.0255C33.9252 98.0234 33.9252 98.0188 33.9232 98.0168L27.3642 91.4862C27.2946 91.4165 27.2053 91.3882 27.127 91.3295C27.0117 91.2402 26.9007 91.1576 26.7721 91.0943C26.6482 91.0333 26.5219 90.9964 26.3913 90.9614C26.252 90.9221 26.117 90.8918 25.9711 90.8808C25.8382 90.8721 25.7142 90.8851 25.5816 90.9004C25.4357 90.9178 25.2987 90.9374 25.1571 90.9831C25.0198 91.0267 24.8982 91.0941 24.7719 91.166C24.6913 91.2117 24.5999 91.227 24.5237 91.2836L17.2856 96.6867L13.6088 93.0252L23.4004 83.2859L41.1987 100.79L37.4127 104.541ZM65.2441 75.9019C65.1811 75.8933 65.1222 75.9173 65.0592 75.9129C64.9003 75.9042 64.748 75.9152 64.5891 75.9412C64.4651 75.9629 64.3475 75.9869 64.2299 76.0282C64.0906 76.0762 63.9643 76.1415 63.8357 76.2198C63.7138 76.2938 63.6028 76.3721 63.4962 76.4701C63.4439 76.5157 63.3809 76.5377 63.3329 76.5897L44.1566 97.5923L26.4913 80.2185L38.0548 68.716C38.9061 67.867 38.9104 66.4889 38.0614 65.6356C37.6326 65.2068 37.0688 64.9956 36.5051 64.9978V64.9958L27.4492 65.0501L27.5624 58.4892L40.2319 58.5981C45.3954 63.8792 52.5964 67.1729 60.5638 67.1729C62.3487 67.1729 64.0903 66.9879 65.786 66.6721C65.9493 66.8027 66.1102 66.9356 66.3151 67.0183L76.1503 70.9366L76.7728 74.032L77.4998 77.6456L65.2441 75.9019ZM81.7383 76.629L80.4605 70.2703L86.3641 65.8621L87.9098 67.9126L90.2281 70.9907L81.7383 76.629ZM97.059 65.0741L93.6391 68.2785L89.8383 63.2325L93.232 60.6313C93.8654 60.1438 94.6644 59.9455 95.448 60.0478C96.2361 60.1588 96.9327 60.5703 97.4072 61.208C98.2912 62.3989 98.1409 64.0598 97.059 65.0741Z" fill="#212121"/>
<path d="M55.5422 76.5138L46.7955 67.8064C45.9488 66.9597 44.5728 66.9597 43.7238 67.8064L34.9794 76.5138C34.5702 76.9253 34.3394 77.4781 34.3394 78.0572C34.3394 78.6363 34.5679 79.1914 34.9794 79.6005L43.7238 88.308C44.1483 88.7302 44.7057 88.9414 45.2608 88.9414C45.8159 88.9414 46.373 88.7302 46.7955 88.308L55.5422 79.6005C55.9514 79.1914 56.1843 78.6363 56.1843 78.0572C56.1843 77.4781 55.9534 76.923 55.5422 76.5138ZM45.2608 83.6932L39.6008 78.0572L45.2608 72.4212L50.9228 78.0572L45.2608 83.6932Z" fill="#212121"/>
<path d="M70.0813 21.5215L69.0298 25.749C69.3193 25.821 76.1221 27.5929 76.1221 34.5197H80.476C80.4757 26.2865 73.6775 22.4161 70.0813 21.5215Z" fill="#212121"/>
<path d="M80.4754 38.8735H76.1216V43.2274H80.4754V38.8735Z" fill="#212121"/>
</g>
<defs>
<clipPath id="clip0">
<rect width="130.61" height="130.61" fill="white" transform="translate(0.0239258 0.824707)"/>
</clipPath>
</defs>
</svg>
