<svg width="126" height="132" viewBox="0 0 126 132" fill="none" xmlns="http://www.w3.org/2000/svg">
<path d="M125.246 63.278C125.239 28.7789 97.2659 0.817733 62.7658 0.824708C28.2667 0.831684 0.305526 28.8058 0.312501 63.3049C0.31848 90.4799 17.8914 114.533 43.7789 122.799C44.026 122.876 44.2831 122.916 44.5412 122.915C45.0335 122.914 45.5158 122.783 45.9393 122.533C46.4903 122.207 46.9019 121.689 47.0952 121.078L62.8704 71.0785C67.1832 71.0565 70.6609 67.5419 70.638 63.2302C70.6161 58.9174 67.1025 55.4397 62.7897 55.4616C61.6298 55.4666 60.4849 55.7337 59.4426 56.2429L38.6022 35.3995C37.5678 34.4011 35.9207 34.43 34.9222 35.4633C33.9476 36.4727 33.9476 38.0711 34.9222 39.0805L55.7516 59.9338C54.1532 63.1963 55.067 67.1344 57.9409 69.3585L42.91 117.002C13.2049 106.06 -2.00531 73.1093 8.93702 43.4042C19.8794 13.6992 52.8299 -1.51104 82.535 9.43129C112.24 20.3736 127.45 53.3252 116.508 83.0292C111.162 97.5419 100.178 109.278 86.0505 115.573L84.4263 107.923C84.1293 106.517 82.7472 105.618 81.3412 105.916C80.8977 106.011 80.4862 106.219 80.1474 106.521L64.4867 120.503C63.4125 121.458 63.3169 123.104 64.2735 124.178C64.5844 124.527 64.983 124.786 65.4294 124.928L85.4237 131.31C86.7919 131.749 88.2577 130.997 88.6972 129.628C88.8367 129.195 88.8596 128.735 88.7659 128.29L87.1696 120.784C110.289 111.037 125.3 88.3674 125.246 63.278ZM62.7798 60.6752C64.2167 60.6752 65.3826 61.8411 65.3826 63.278C65.3826 64.7159 64.2167 65.8808 62.7798 65.8808C61.3418 65.8808 60.177 64.7159 60.177 63.278C60.177 61.8411 61.3418 60.6752 62.7798 60.6752ZM71.3525 121.344L80.267 113.392L82.7273 124.985L71.3525 121.344Z" fill="#212121"/>
</svg>
