<svg width="302" height="33" viewBox="0 0 302 33" fill="none" xmlns="http://www.w3.org/2000/svg">
<path d="M54.2855 24.7075H51.1861V10.9067H54.2855V24.7075ZM50.9948 7.32256C50.9948 6.84637 51.1436 6.45097 51.4412 6.13635C51.7473 5.82173 52.181 5.66442 52.7422 5.66442C53.3034 5.66442 53.7371 5.82173 54.0432 6.13635C54.3493 6.45097 54.5024 6.84637 54.5024 7.32256C54.5024 7.79024 54.3493 8.18139 54.0432 8.49601C53.7371 8.80213 53.3034 8.95519 52.7422 8.95519C52.181 8.95519 51.7473 8.80213 51.4412 8.49601C51.1436 8.18139 50.9948 7.79024 50.9948 7.32256ZM61.0706 10.9067L61.1599 12.5011C62.1803 11.2681 63.5196 10.6516 65.1777 10.6516C68.0518 10.6516 69.5144 12.297 69.5654 15.5877V24.7075H66.466V15.7663C66.466 14.8905 66.2746 14.2442 65.892 13.8276C65.5179 13.4024 64.9014 13.1898 64.0425 13.1898C62.7926 13.1898 61.8614 13.7553 61.2492 14.8862V24.7075H58.1498V10.9067H61.0706ZM74.348 24.7075V13.2026H72.2434V10.9067H74.348V9.64395C74.348 8.11336 74.7732 6.9314 75.6235 6.09808C76.4738 5.26476 77.6643 4.8481 79.1949 4.8481C79.7391 4.8481 80.3173 4.92463 80.9295 5.07769L80.853 7.50112C80.5129 7.4331 80.1175 7.39909 79.6668 7.39909C78.1872 7.39909 77.4475 8.16013 77.4475 9.68222V10.9067H80.2535V13.2026H77.4475V24.7075H74.348ZM82.4596 17.6796C82.4596 16.3275 82.7275 15.1116 83.2632 14.0316C83.7989 12.9432 84.5514 12.1099 85.5208 11.5317C86.4902 10.945 87.6041 10.6516 88.8626 10.6516C90.7248 10.6516 92.2342 11.2511 93.3906 12.45C94.5555 13.649 95.1848 15.2391 95.2783 17.2204L95.2911 17.9474C95.2911 19.3079 95.0275 20.5239 94.5003 21.5953C93.9816 22.6667 93.2333 23.4958 92.2554 24.0825C91.286 24.6693 90.1636 24.9626 88.8881 24.9626C86.9409 24.9626 85.3805 24.3164 84.2071 23.0239C83.0421 21.7229 82.4596 19.9924 82.4596 17.8326V17.6796ZM85.5591 17.9474C85.5591 19.3675 85.8524 20.4814 86.4392 21.2892C87.0259 22.0885 87.8422 22.4882 88.8881 22.4882C89.934 22.4882 90.7461 22.08 91.3243 21.2637C91.911 20.4474 92.2044 19.2527 92.2044 17.6796C92.2044 16.285 91.9025 15.1796 91.2988 14.3633C90.7036 13.547 89.8915 13.1388 88.8626 13.1388C87.8507 13.1388 87.0471 13.5427 86.4519 14.3505C85.8567 15.1498 85.5591 16.3488 85.5591 17.9474ZM119.053 18.1005C118.951 20.2263 118.428 21.9057 117.484 23.1387C116.54 24.3631 115.261 24.9754 113.645 24.9754C112.106 24.9754 111.077 24.3206 110.558 23.0111C110.125 23.6574 109.619 24.1421 109.04 24.4652C108.471 24.7883 107.871 24.9499 107.242 24.9499C106 24.9499 105.057 24.4397 104.41 23.4193C103.773 22.3989 103.53 21.0341 103.683 19.3249C103.819 17.9389 104.155 16.6889 104.691 15.575C105.235 14.4611 105.92 13.6022 106.744 12.9985C107.578 12.3863 108.462 12.0801 109.398 12.0801C110.112 12.0801 110.741 12.1694 111.285 12.348C111.838 12.5266 112.484 12.8965 113.224 13.4577L112.561 20.6387C112.399 22.3223 112.884 23.1642 114.015 23.1642C114.882 23.1642 115.592 22.7007 116.145 21.7739C116.706 20.8385 117.012 19.6311 117.063 18.1515C117.208 15.0138 116.6 12.6116 115.239 10.945C113.887 9.27831 111.851 8.44499 109.13 8.44499C107.463 8.44499 105.983 8.86165 104.691 9.69497C103.407 10.5283 102.387 11.7358 101.63 13.3174C100.873 14.8905 100.456 16.6847 100.38 18.6999C100.278 20.7492 100.52 22.5179 101.107 24.006C101.702 25.4856 102.608 26.6123 103.824 27.3861C105.048 28.1599 106.54 28.5468 108.301 28.5468C109.015 28.5468 109.759 28.4617 110.533 28.2917C111.315 28.1216 111.978 27.892 112.522 27.6029L113.007 29.3503C112.488 29.6904 111.787 29.9625 110.903 30.1666C110.027 30.3792 109.142 30.4855 108.25 30.4855C106.09 30.4855 104.236 30.0263 102.688 29.108C101.141 28.1981 99.9801 26.8759 99.2063 25.1412C98.407 23.347 98.0541 21.1999 98.1477 18.6999C98.2497 16.37 98.7727 14.2782 99.7165 12.4245C100.66 10.5623 101.949 9.11675 103.581 8.08785C105.222 7.05895 107.089 6.54451 109.181 6.54451C111.298 6.54451 113.118 7.01219 114.64 7.94755C116.17 8.87441 117.314 10.2137 118.071 11.9653C118.828 13.7085 119.155 15.7536 119.053 18.1005ZM106.183 19.3249C106.073 20.4814 106.175 21.3615 106.489 21.9652C106.804 22.5604 107.306 22.8581 107.994 22.8581C108.454 22.8581 108.887 22.6582 109.295 22.2586C109.704 21.8504 110.035 21.2935 110.29 20.5877L110.864 14.2995C110.439 14.1379 110.027 14.0572 109.627 14.0572C108.683 14.0572 107.914 14.5036 107.318 15.3964C106.723 16.2808 106.345 17.5903 106.183 19.3249ZM121.744 17.7051C121.744 15.5792 122.237 13.8743 123.223 12.5903C124.21 11.2978 125.532 10.6516 127.19 10.6516C128.653 10.6516 129.835 11.1618 130.736 12.1822V5.11595H133.835V24.7075H131.029L130.876 23.279C129.949 24.4014 128.712 24.9626 127.165 24.9626C125.549 24.9626 124.239 24.3121 123.236 23.0111C122.241 21.7101 121.744 19.9414 121.744 17.7051ZM124.843 17.9729C124.843 19.376 125.111 20.4729 125.647 21.2637C126.191 22.046 126.961 22.4371 127.955 22.4371C129.222 22.4371 130.149 21.8717 130.736 20.7407V14.848C130.166 13.7425 129.248 13.1898 127.981 13.1898C126.978 13.1898 126.204 13.5895 125.66 14.3888C125.115 15.1796 124.843 16.3743 124.843 17.9729ZM143.669 24.9626C141.705 24.9626 140.11 24.3461 138.886 23.1132C137.67 21.8717 137.062 20.222 137.062 18.1642V17.7816C137.062 16.4041 137.326 15.1753 137.853 14.0954C138.388 13.007 139.137 12.1609 140.098 11.5572C141.058 10.9535 142.13 10.6516 143.312 10.6516C145.191 10.6516 146.641 11.2511 147.661 12.45C148.69 13.649 149.205 15.3454 149.205 17.5393V18.7892H140.187C140.28 19.9287 140.659 20.83 141.322 21.4933C141.994 22.1565 142.836 22.4882 143.848 22.4882C145.268 22.4882 146.424 21.9142 147.317 20.7662L148.988 22.3606C148.435 23.1854 147.695 23.8274 146.768 24.2866C145.85 24.7373 144.817 24.9626 143.669 24.9626ZM143.299 13.1388C142.449 13.1388 141.76 13.4364 141.233 14.0316C140.714 14.6269 140.382 15.4559 140.238 16.5189H146.143V16.2893C146.075 15.2519 145.799 14.4696 145.314 13.9424C144.83 13.4067 144.158 13.1388 143.299 13.1388ZM156.832 20.779L159.752 10.9067H162.954L158.171 24.7075H155.48L150.658 10.9067H153.872L156.832 20.779ZM173.157 20.9576C173.157 20.4049 172.928 19.9839 172.469 19.6948C172.018 19.4057 171.265 19.1506 170.211 18.9295C169.157 18.7085 168.276 18.4278 167.571 18.0877C166.023 17.3394 165.249 16.2553 165.249 14.8352C165.249 13.6447 165.751 12.6499 166.754 11.8506C167.758 11.0512 169.033 10.6516 170.581 10.6516C172.23 10.6516 173.561 11.0597 174.573 11.8761C175.594 12.6924 176.104 13.751 176.104 15.052H173.004C173.004 14.4568 172.783 13.9636 172.341 13.5725C171.899 13.1728 171.312 12.973 170.581 12.973C169.901 12.973 169.344 13.1303 168.91 13.4449C168.485 13.7595 168.272 14.1805 168.272 14.7077C168.272 15.1838 168.472 15.5537 168.872 15.8173C169.271 16.0809 170.079 16.3488 171.295 16.6209C172.511 16.8845 173.463 17.2034 174.152 17.5775C174.85 17.9432 175.364 18.3853 175.696 18.904C176.036 19.4227 176.206 20.052 176.206 20.7918C176.206 22.0332 175.691 23.0409 174.662 23.8147C173.634 24.58 172.286 24.9626 170.619 24.9626C169.488 24.9626 168.481 24.7585 167.596 24.3504C166.712 23.9422 166.023 23.381 165.53 22.6667C165.037 21.9525 164.79 21.1829 164.79 20.3581H167.8C167.843 21.0894 168.119 21.6548 168.629 22.0545C169.14 22.4456 169.816 22.6412 170.657 22.6412C171.474 22.6412 172.094 22.4882 172.52 22.182C172.945 21.8674 173.157 21.4593 173.157 20.9576ZM183.323 7.55214V10.9067H185.759V13.2026H183.323V20.9066C183.323 21.4338 183.425 21.8164 183.629 22.0545C183.841 22.2841 184.215 22.3989 184.751 22.3989C185.108 22.3989 185.47 22.3564 185.835 22.2713V24.6693C185.129 24.8648 184.449 24.9626 183.794 24.9626C181.414 24.9626 180.223 23.6489 180.223 21.0213V13.2026H177.953V10.9067H180.223V7.55214H183.323ZM197.021 23.3555C196.111 24.4269 194.818 24.9626 193.143 24.9626C191.647 24.9626 190.512 24.5247 189.738 23.6489C188.972 22.773 188.59 21.506 188.59 19.8479V10.9067H191.689V19.8096C191.689 21.5613 192.416 22.4371 193.87 22.4371C195.375 22.4371 196.392 21.8972 196.919 20.8173V10.9067H200.018V24.7075H197.097L197.021 23.3555ZM203.117 17.7051C203.117 15.5792 203.61 13.8743 204.597 12.5903C205.583 11.2978 206.905 10.6516 208.563 10.6516C210.026 10.6516 211.208 11.1618 212.109 12.1822V5.11595H215.209V24.7075H212.403L212.25 23.279C211.323 24.4014 210.086 24.9626 208.538 24.9626C206.922 24.9626 205.613 24.3121 204.609 23.0111C203.615 21.7101 203.117 19.9414 203.117 17.7051ZM206.217 17.9729C206.217 19.376 206.484 20.4729 207.02 21.2637C207.564 22.046 208.334 22.4371 209.329 22.4371C210.596 22.4371 211.523 21.8717 212.109 20.7407V14.848C211.54 13.7425 210.621 13.1898 209.354 13.1898C208.351 13.1898 207.577 13.5895 207.033 14.3888C206.489 15.1796 206.217 16.3743 206.217 17.9729ZM222.262 24.7075H219.162V10.9067H222.262V24.7075ZM218.971 7.32256C218.971 6.84637 219.12 6.45097 219.417 6.13635C219.724 5.82173 220.157 5.66442 220.718 5.66442C221.28 5.66442 221.713 5.82173 222.019 6.13635C222.326 6.45097 222.479 6.84637 222.479 7.32256C222.479 7.79024 222.326 8.18139 222.019 8.49601C221.713 8.80213 221.28 8.95519 220.718 8.95519C220.157 8.95519 219.724 8.80213 219.417 8.49601C219.12 8.18139 218.971 7.79024 218.971 7.32256ZM225.59 17.6796C225.59 16.3275 225.858 15.1116 226.394 14.0316C226.93 12.9432 227.682 12.1099 228.651 11.5317C229.621 10.945 230.735 10.6516 231.993 10.6516C233.855 10.6516 235.365 11.2511 236.521 12.45C237.686 13.649 238.315 15.2391 238.409 17.2204L238.422 17.9474C238.422 19.3079 238.158 20.5239 237.631 21.5953C237.112 22.6667 236.364 23.4958 235.386 24.0825C234.417 24.6693 233.294 24.9626 232.019 24.9626C230.072 24.9626 228.511 24.3164 227.338 23.0239C226.173 21.7229 225.59 19.9924 225.59 17.8326V17.6796ZM228.69 17.9474C228.69 19.3675 228.983 20.4814 229.57 21.2892C230.157 22.0885 230.973 22.4882 232.019 22.4882C233.065 22.4882 233.877 22.08 234.455 21.2637C235.042 20.4474 235.335 19.2527 235.335 17.6796C235.335 16.285 235.033 15.1796 234.429 14.3633C233.834 13.547 233.022 13.1388 231.993 13.1388C230.981 13.1388 230.178 13.5427 229.583 14.3505C228.987 15.1498 228.69 16.3488 228.69 17.9474ZM243.498 21.4423C244.076 21.4423 244.522 21.6081 244.837 21.9397C245.152 22.2628 245.309 22.671 245.309 23.1642C245.309 23.6489 245.152 24.0528 244.837 24.3759C244.522 24.6905 244.076 24.8478 243.498 24.8478C242.945 24.8478 242.507 24.6905 242.184 24.3759C241.861 24.0613 241.699 23.6574 241.699 23.1642C241.699 22.671 241.857 22.2628 242.171 21.9397C242.486 21.6081 242.928 21.4423 243.498 21.4423ZM255.053 22.4882C255.827 22.4882 256.469 22.2628 256.979 21.8122C257.489 21.3615 257.761 20.8045 257.795 20.1413H260.716C260.682 21.0001 260.414 21.8036 259.913 22.5519C259.411 23.2917 258.731 23.8784 257.872 24.3121C257.013 24.7458 256.086 24.9626 255.091 24.9626C253.161 24.9626 251.631 24.3376 250.5 23.0876C249.369 21.8377 248.803 20.1115 248.803 17.9091V17.5903C248.803 15.49 249.364 13.8106 250.487 12.5521C251.609 11.2851 253.14 10.6516 255.079 10.6516C256.72 10.6516 258.055 11.132 259.084 12.0929C260.121 13.0453 260.665 14.2995 260.716 15.8556H257.795C257.761 15.0648 257.489 14.4143 256.979 13.9041C256.477 13.3939 255.835 13.1388 255.053 13.1388C254.05 13.1388 253.276 13.5044 252.732 14.2357C252.188 14.9585 251.911 16.0597 251.903 17.5393V18.0367C251.903 19.5333 252.171 20.6515 252.706 21.3912C253.25 22.1225 254.033 22.4882 255.053 22.4882ZM262.999 17.6796C262.999 16.3275 263.267 15.1116 263.803 14.0316C264.338 12.9432 265.091 12.1099 266.06 11.5317C267.03 10.945 268.143 10.6516 269.402 10.6516C271.264 10.6516 272.773 11.2511 273.93 12.45C275.095 13.649 275.724 15.2391 275.818 17.2204L275.83 17.9474C275.83 19.3079 275.567 20.5239 275.04 21.5953C274.521 22.6667 273.773 23.4958 272.795 24.0825C271.825 24.6693 270.703 24.9626 269.427 24.9626C267.48 24.9626 265.92 24.3164 264.746 23.0239C263.581 21.7229 262.999 19.9924 262.999 17.8326V17.6796ZM266.098 17.9474C266.098 19.3675 266.392 20.4814 266.978 21.2892C267.565 22.0885 268.382 22.4882 269.427 22.4882C270.473 22.4882 271.285 22.08 271.864 21.2637C272.45 20.4474 272.744 19.2527 272.744 17.6796C272.744 16.285 272.442 15.1796 271.838 14.3633C271.243 13.547 270.431 13.1388 269.402 13.1388C268.39 13.1388 267.586 13.5427 266.991 14.3505C266.396 15.1498 266.098 16.3488 266.098 17.9474ZM281.888 10.9067L281.978 12.348C282.947 11.2171 284.274 10.6516 285.957 10.6516C287.803 10.6516 289.065 11.3574 289.746 12.7689C290.749 11.3574 292.16 10.6516 293.98 10.6516C295.502 10.6516 296.633 11.0725 297.373 11.9143C298.121 12.7562 298.504 13.9976 298.521 15.6388V24.7075H295.421V15.7281C295.421 14.8522 295.23 14.2102 294.847 13.8021C294.465 13.3939 293.831 13.1898 292.947 13.1898C292.241 13.1898 291.663 13.3811 291.212 13.7638C290.77 14.1379 290.46 14.6311 290.281 15.2434L290.294 24.7075H287.195V15.626C287.152 14.0019 286.323 13.1898 284.707 13.1898C283.466 13.1898 282.586 13.6958 282.067 14.7077V24.7075H278.968V10.9067H281.888Z" fill="#757575"/>
<path d="M27.9431 9.75342H3.68699C2.14363 9.75342 0.888184 11.0235 0.888184 12.585V29.574C0.888184 31.1354 2.14363 32.4056 3.68699 32.4056H27.9431C29.4865 32.4056 30.7419 31.1354 30.7419 29.574V12.585C30.7419 11.0235 29.4865 9.75342 27.9431 9.75342ZM27.9431 11.6411C28.0699 11.6411 28.1905 11.6677 28.3007 11.7142L15.8151 22.6621L3.32935 11.7142C3.43959 11.6678 3.56018 11.6411 3.68693 11.6411H27.9431ZM27.9431 30.5178H3.68699C3.17225 30.5178 2.75404 30.0948 2.75404 29.574V13.7085L15.2037 24.6244C15.3796 24.7783 15.5973 24.8548 15.8151 24.8548C16.0328 24.8548 16.2505 24.7784 16.4264 24.6244L28.8761 13.7085V29.574C28.876 30.0948 28.4579 30.5178 27.9431 30.5178Z" fill="#757575"/>
<path d="M54.2855 24.7075H51.1861V10.9067H54.2855V24.7075ZM50.9948 7.32256C50.9948 6.84637 51.1436 6.45097 51.4412 6.13635C51.7473 5.82173 52.181 5.66442 52.7422 5.66442C53.3034 5.66442 53.7371 5.82173 54.0432 6.13635C54.3493 6.45097 54.5024 6.84637 54.5024 7.32256C54.5024 7.79024 54.3493 8.18139 54.0432 8.49601C53.7371 8.80213 53.3034 8.95519 52.7422 8.95519C52.181 8.95519 51.7473 8.80213 51.4412 8.49601C51.1436 8.18139 50.9948 7.79024 50.9948 7.32256ZM61.0706 10.9067L61.1599 12.5011C62.1803 11.2681 63.5196 10.6516 65.1777 10.6516C68.0518 10.6516 69.5144 12.297 69.5654 15.5877V24.7075H66.466V15.7663C66.466 14.8905 66.2746 14.2442 65.892 13.8276C65.5179 13.4024 64.9014 13.1898 64.0425 13.1898C62.7926 13.1898 61.8614 13.7553 61.2492 14.8862V24.7075H58.1498V10.9067H61.0706ZM74.348 24.7075V13.2026H72.2434V10.9067H74.348V9.64395C74.348 8.11336 74.7732 6.9314 75.6235 6.09808C76.4738 5.26476 77.6643 4.8481 79.1949 4.8481C79.7391 4.8481 80.3173 4.92463 80.9295 5.07769L80.853 7.50112C80.5129 7.4331 80.1175 7.39909 79.6668 7.39909C78.1872 7.39909 77.4475 8.16013 77.4475 9.68222V10.9067H80.2535V13.2026H77.4475V24.7075H74.348ZM82.4596 17.6796C82.4596 16.3275 82.7275 15.1116 83.2632 14.0316C83.7989 12.9432 84.5514 12.1099 85.5208 11.5317C86.4902 10.945 87.6041 10.6516 88.8626 10.6516C90.7248 10.6516 92.2342 11.2511 93.3906 12.45C94.5555 13.649 95.1848 15.2391 95.2783 17.2204L95.2911 17.9474C95.2911 19.3079 95.0275 20.5239 94.5003 21.5953C93.9816 22.6667 93.2333 23.4958 92.2554 24.0825C91.286 24.6693 90.1636 24.9626 88.8881 24.9626C86.9409 24.9626 85.3805 24.3164 84.2071 23.0239C83.0421 21.7229 82.4596 19.9924 82.4596 17.8326V17.6796ZM85.5591 17.9474C85.5591 19.3675 85.8524 20.4814 86.4392 21.2892C87.0259 22.0885 87.8422 22.4882 88.8881 22.4882C89.934 22.4882 90.7461 22.08 91.3243 21.2637C91.911 20.4474 92.2044 19.2527 92.2044 17.6796C92.2044 16.285 91.9025 15.1796 91.2988 14.3633C90.7036 13.547 89.8915 13.1388 88.8626 13.1388C87.8507 13.1388 87.0471 13.5427 86.4519 14.3505C85.8567 15.1498 85.5591 16.3488 85.5591 17.9474ZM119.053 18.1005C118.951 20.2263 118.428 21.9057 117.484 23.1387C116.54 24.3631 115.261 24.9754 113.645 24.9754C112.106 24.9754 111.077 24.3206 110.558 23.0111C110.125 23.6574 109.619 24.1421 109.04 24.4652C108.471 24.7883 107.871 24.9499 107.242 24.9499C106 24.9499 105.057 24.4397 104.41 23.4193C103.773 22.3989 103.53 21.0341 103.683 19.3249C103.819 17.9389 104.155 16.6889 104.691 15.575C105.235 14.4611 105.92 13.6022 106.744 12.9985C107.578 12.3863 108.462 12.0801 109.398 12.0801C110.112 12.0801 110.741 12.1694 111.285 12.348C111.838 12.5266 112.484 12.8965 113.224 13.4577L112.561 20.6387C112.399 22.3223 112.884 23.1642 114.015 23.1642C114.882 23.1642 115.592 22.7007 116.145 21.7739C116.706 20.8385 117.012 19.6311 117.063 18.1515C117.208 15.0138 116.6 12.6116 115.239 10.945C113.887 9.27831 111.851 8.44499 109.13 8.44499C107.463 8.44499 105.983 8.86165 104.691 9.69497C103.407 10.5283 102.387 11.7358 101.63 13.3174C100.873 14.8905 100.456 16.6847 100.38 18.6999C100.278 20.7492 100.52 22.5179 101.107 24.006C101.702 25.4856 102.608 26.6123 103.824 27.3861C105.048 28.1599 106.54 28.5468 108.301 28.5468C109.015 28.5468 109.759 28.4617 110.533 28.2917C111.315 28.1216 111.978 27.892 112.522 27.6029L113.007 29.3503C112.488 29.6904 111.787 29.9625 110.903 30.1666C110.027 30.3792 109.142 30.4855 108.25 30.4855C106.09 30.4855 104.236 30.0263 102.688 29.108C101.141 28.1981 99.9801 26.8759 99.2063 25.1412C98.407 23.347 98.0541 21.1999 98.1477 18.6999C98.2497 16.37 98.7727 14.2782 99.7165 12.4245C100.66 10.5623 101.949 9.11675 103.581 8.08785C105.222 7.05895 107.089 6.54451 109.181 6.54451C111.298 6.54451 113.118 7.01219 114.64 7.94755C116.17 8.87441 117.314 10.2137 118.071 11.9653C118.828 13.7085 119.155 15.7536 119.053 18.1005ZM106.183 19.3249C106.073 20.4814 106.175 21.3615 106.489 21.9652C106.804 22.5604 107.306 22.8581 107.994 22.8581C108.454 22.8581 108.887 22.6582 109.295 22.2586C109.704 21.8504 110.035 21.2935 110.29 20.5877L110.864 14.2995C110.439 14.1379 110.027 14.0572 109.627 14.0572C108.683 14.0572 107.914 14.5036 107.318 15.3964C106.723 16.2808 106.345 17.5903 106.183 19.3249ZM121.744 17.7051C121.744 15.5792 122.237 13.8743 123.223 12.5903C124.21 11.2978 125.532 10.6516 127.19 10.6516C128.653 10.6516 129.835 11.1618 130.736 12.1822V5.11595H133.835V24.7075H131.029L130.876 23.279C129.949 24.4014 128.712 24.9626 127.165 24.9626C125.549 24.9626 124.239 24.3121 123.236 23.0111C122.241 21.7101 121.744 19.9414 121.744 17.7051ZM124.843 17.9729C124.843 19.376 125.111 20.4729 125.647 21.2637C126.191 22.046 126.961 22.4371 127.955 22.4371C129.222 22.4371 130.149 21.8717 130.736 20.7407V14.848C130.166 13.7425 129.248 13.1898 127.981 13.1898C126.978 13.1898 126.204 13.5895 125.66 14.3888C125.115 15.1796 124.843 16.3743 124.843 17.9729ZM143.669 24.9626C141.705 24.9626 140.11 24.3461 138.886 23.1132C137.67 21.8717 137.062 20.222 137.062 18.1642V17.7816C137.062 16.4041 137.326 15.1753 137.853 14.0954C138.388 13.007 139.137 12.1609 140.098 11.5572C141.058 10.9535 142.13 10.6516 143.312 10.6516C145.191 10.6516 146.641 11.2511 147.661 12.45C148.69 13.649 149.205 15.3454 149.205 17.5393V18.7892H140.187C140.28 19.9287 140.659 20.83 141.322 21.4933C141.994 22.1565 142.836 22.4882 143.848 22.4882C145.268 22.4882 146.424 21.9142 147.317 20.7662L148.988 22.3606C148.435 23.1854 147.695 23.8274 146.768 24.2866C145.85 24.7373 144.817 24.9626 143.669 24.9626ZM143.299 13.1388C142.449 13.1388 141.76 13.4364 141.233 14.0316C140.714 14.6269 140.382 15.4559 140.238 16.5189H146.143V16.2893C146.075 15.2519 145.799 14.4696 145.314 13.9424C144.83 13.4067 144.158 13.1388 143.299 13.1388ZM156.832 20.779L159.752 10.9067H162.954L158.171 24.7075H155.48L150.658 10.9067H153.872L156.832 20.779ZM173.157 20.9576C173.157 20.4049 172.928 19.9839 172.469 19.6948C172.018 19.4057 171.265 19.1506 170.211 18.9295C169.157 18.7085 168.276 18.4278 167.571 18.0877C166.023 17.3394 165.249 16.2553 165.249 14.8352C165.249 13.6447 165.751 12.6499 166.754 11.8506C167.758 11.0512 169.033 10.6516 170.581 10.6516C172.23 10.6516 173.561 11.0597 174.573 11.8761C175.594 12.6924 176.104 13.751 176.104 15.052H173.004C173.004 14.4568 172.783 13.9636 172.341 13.5725C171.899 13.1728 171.312 12.973 170.581 12.973C169.901 12.973 169.344 13.1303 168.91 13.4449C168.485 13.7595 168.272 14.1805 168.272 14.7077C168.272 15.1838 168.472 15.5537 168.872 15.8173C169.271 16.0809 170.079 16.3488 171.295 16.6209C172.511 16.8845 173.463 17.2034 174.152 17.5775C174.85 17.9432 175.364 18.3853 175.696 18.904C176.036 19.4227 176.206 20.052 176.206 20.7918C176.206 22.0332 175.691 23.0409 174.662 23.8147C173.634 24.58 172.286 24.9626 170.619 24.9626C169.488 24.9626 168.481 24.7585 167.596 24.3504C166.712 23.9422 166.023 23.381 165.53 22.6667C165.037 21.9525 164.79 21.1829 164.79 20.3581H167.8C167.843 21.0894 168.119 21.6548 168.629 22.0545C169.14 22.4456 169.816 22.6412 170.657 22.6412C171.474 22.6412 172.094 22.4882 172.52 22.182C172.945 21.8674 173.157 21.4593 173.157 20.9576ZM183.323 7.55214V10.9067H185.759V13.2026H183.323V20.9066C183.323 21.4338 183.425 21.8164 183.629 22.0545C183.841 22.2841 184.215 22.3989 184.751 22.3989C185.108 22.3989 185.47 22.3564 185.835 22.2713V24.6693C185.129 24.8648 184.449 24.9626 183.794 24.9626C181.414 24.9626 180.223 23.6489 180.223 21.0213V13.2026H177.953V10.9067H180.223V7.55214H183.323ZM197.021 23.3555C196.111 24.4269 194.818 24.9626 193.143 24.9626C191.647 24.9626 190.512 24.5247 189.738 23.6489C188.972 22.773 188.59 21.506 188.59 19.8479V10.9067H191.689V19.8096C191.689 21.5613 192.416 22.4371 193.87 22.4371C195.375 22.4371 196.392 21.8972 196.919 20.8173V10.9067H200.018V24.7075H197.097L197.021 23.3555ZM203.117 17.7051C203.117 15.5792 203.61 13.8743 204.597 12.5903C205.583 11.2978 206.905 10.6516 208.563 10.6516C210.026 10.6516 211.208 11.1618 212.109 12.1822V5.11595H215.209V24.7075H212.403L212.25 23.279C211.323 24.4014 210.086 24.9626 208.538 24.9626C206.922 24.9626 205.613 24.3121 204.609 23.0111C203.615 21.7101 203.117 19.9414 203.117 17.7051ZM206.217 17.9729C206.217 19.376 206.484 20.4729 207.02 21.2637C207.564 22.046 208.334 22.4371 209.329 22.4371C210.596 22.4371 211.523 21.8717 212.109 20.7407V14.848C211.54 13.7425 210.621 13.1898 209.354 13.1898C208.351 13.1898 207.577 13.5895 207.033 14.3888C206.489 15.1796 206.217 16.3743 206.217 17.9729ZM222.262 24.7075H219.162V10.9067H222.262V24.7075ZM218.971 7.32256C218.971 6.84637 219.12 6.45097 219.417 6.13635C219.724 5.82173 220.157 5.66442 220.718 5.66442C221.28 5.66442 221.713 5.82173 222.019 6.13635C222.326 6.45097 222.479 6.84637 222.479 7.32256C222.479 7.79024 222.326 8.18139 222.019 8.49601C221.713 8.80213 221.28 8.95519 220.718 8.95519C220.157 8.95519 219.724 8.80213 219.417 8.49601C219.12 8.18139 218.971 7.79024 218.971 7.32256ZM225.59 17.6796C225.59 16.3275 225.858 15.1116 226.394 14.0316C226.93 12.9432 227.682 12.1099 228.651 11.5317C229.621 10.945 230.735 10.6516 231.993 10.6516C233.855 10.6516 235.365 11.2511 236.521 12.45C237.686 13.649 238.315 15.2391 238.409 17.2204L238.422 17.9474C238.422 19.3079 238.158 20.5239 237.631 21.5953C237.112 22.6667 236.364 23.4958 235.386 24.0825C234.417 24.6693 233.294 24.9626 232.019 24.9626C230.072 24.9626 228.511 24.3164 227.338 23.0239C226.173 21.7229 225.59 19.9924 225.59 17.8326V17.6796ZM228.69 17.9474C228.69 19.3675 228.983 20.4814 229.57 21.2892C230.157 22.0885 230.973 22.4882 232.019 22.4882C233.065 22.4882 233.877 22.08 234.455 21.2637C235.042 20.4474 235.335 19.2527 235.335 17.6796C235.335 16.285 235.033 15.1796 234.429 14.3633C233.834 13.547 233.022 13.1388 231.993 13.1388C230.981 13.1388 230.178 13.5427 229.583 14.3505C228.987 15.1498 228.69 16.3488 228.69 17.9474ZM243.498 21.4423C244.076 21.4423 244.522 21.6081 244.837 21.9397C245.152 22.2628 245.309 22.671 245.309 23.1642C245.309 23.6489 245.152 24.0528 244.837 24.3759C244.522 24.6905 244.076 24.8478 243.498 24.8478C242.945 24.8478 242.507 24.6905 242.184 24.3759C241.861 24.0613 241.699 23.6574 241.699 23.1642C241.699 22.671 241.857 22.2628 242.171 21.9397C242.486 21.6081 242.928 21.4423 243.498 21.4423ZM255.053 22.4882C255.827 22.4882 256.469 22.2628 256.979 21.8122C257.489 21.3615 257.761 20.8045 257.795 20.1413H260.716C260.682 21.0001 260.414 21.8036 259.913 22.5519C259.411 23.2917 258.731 23.8784 257.872 24.3121C257.013 24.7458 256.086 24.9626 255.091 24.9626C253.161 24.9626 251.631 24.3376 250.5 23.0876C249.369 21.8377 248.803 20.1115 248.803 17.9091V17.5903C248.803 15.49 249.364 13.8106 250.487 12.5521C251.609 11.2851 253.14 10.6516 255.079 10.6516C256.72 10.6516 258.055 11.132 259.084 12.0929C260.121 13.0453 260.665 14.2995 260.716 15.8556H257.795C257.761 15.0648 257.489 14.4143 256.979 13.9041C256.477 13.3939 255.835 13.1388 255.053 13.1388C254.05 13.1388 253.276 13.5044 252.732 14.2357C252.188 14.9585 251.911 16.0597 251.903 17.5393V18.0367C251.903 19.5333 252.171 20.6515 252.706 21.3912C253.25 22.1225 254.033 22.4882 255.053 22.4882ZM262.999 17.6796C262.999 16.3275 263.267 15.1116 263.803 14.0316C264.338 12.9432 265.091 12.1099 266.06 11.5317C267.03 10.945 268.143 10.6516 269.402 10.6516C271.264 10.6516 272.773 11.2511 273.93 12.45C275.095 13.649 275.724 15.2391 275.818 17.2204L275.83 17.9474C275.83 19.3079 275.567 20.5239 275.04 21.5953C274.521 22.6667 273.773 23.4958 272.795 24.0825C271.825 24.6693 270.703 24.9626 269.427 24.9626C267.48 24.9626 265.92 24.3164 264.746 23.0239C263.581 21.7229 262.999 19.9924 262.999 17.8326V17.6796ZM266.098 17.9474C266.098 19.3675 266.392 20.4814 266.978 21.2892C267.565 22.0885 268.382 22.4882 269.427 22.4882C270.473 22.4882 271.285 22.08 271.864 21.2637C272.45 20.4474 272.744 19.2527 272.744 17.6796C272.744 16.285 272.442 15.1796 271.838 14.3633C271.243 13.547 270.431 13.1388 269.402 13.1388C268.39 13.1388 267.586 13.5427 266.991 14.3505C266.396 15.1498 266.098 16.3488 266.098 17.9474ZM281.888 10.9067L281.978 12.348C282.947 11.2171 284.274 10.6516 285.957 10.6516C287.803 10.6516 289.065 11.3574 289.746 12.7689C290.749 11.3574 292.16 10.6516 293.98 10.6516C295.502 10.6516 296.633 11.0725 297.373 11.9143C298.121 12.7562 298.504 13.9976 298.521 15.6388V24.7075H295.421V15.7281C295.421 14.8522 295.23 14.2102 294.847 13.8021C294.465 13.3939 293.831 13.1898 292.947 13.1898C292.241 13.1898 291.663 13.3811 291.212 13.7638C290.77 14.1379 290.46 14.6311 290.281 15.2434L290.294 24.7075H287.195V15.626C287.152 14.0019 286.323 13.1898 284.707 13.1898C283.466 13.1898 282.586 13.6958 282.067 14.7077V24.7075H278.968V10.9067H281.888Z" fill="#2196F3"/>
<path d="M27.9431 9.75342H3.68699C2.14363 9.75342 0.888184 11.0235 0.888184 12.585V29.574C0.888184 31.1354 2.14363 32.4056 3.68699 32.4056H27.9431C29.4865 32.4056 30.7419 31.1354 30.7419 29.574V12.585C30.7419 11.0235 29.4865 9.75342 27.9431 9.75342ZM27.9431 11.6411C28.0699 11.6411 28.1905 11.6677 28.3007 11.7142L15.8151 22.6621L3.32935 11.7142C3.43959 11.6678 3.56018 11.6411 3.68693 11.6411H27.9431ZM27.9431 30.5178H3.68699C3.17225 30.5178 2.75404 30.0948 2.75404 29.574V13.7085L15.2037 24.6244C15.3796 24.7783 15.5973 24.8548 15.8151 24.8548C16.0328 24.8548 16.2505 24.7784 16.4264 24.6244L28.8761 13.7085V29.574C28.876 30.0948 28.4579 30.5178 27.9431 30.5178Z" fill="#2196F3"/>
</svg>
