<svg width="283" height="37" viewBox="0 0 283 37" fill="none" xmlns="http://www.w3.org/2000/svg">
<path d="M15.6361 1.43395H21.7972L25.6782 12.8344L29.5592 1.43395H35.7688L29.8988 17.1035L34.2649 28.1158L44.0159 1.33692H51.2928L37.2727 35.7808H31.6452L25.6782 21.3241L19.7112 35.7808H14.0837L0.160645 1.33692H7.34049L17.14 28.1158L21.4091 17.1035L15.6361 1.43395ZM64.3077 36.2659C62.2702 36.2659 60.4268 35.9263 58.7773 35.2471C57.1279 34.5356 55.721 33.5815 54.5567 32.3849C53.3924 31.1882 52.4869 29.7976 51.84 28.2128C51.2256 26.6281 50.9183 24.9625 50.9183 23.216C50.9183 21.4049 51.2256 19.707 51.84 18.1222C52.4545 16.5051 53.3439 15.0983 54.5082 13.9016C55.6725 12.6727 57.0794 11.7024 58.7288 10.9909C60.4106 10.2794 62.2864 9.92362 64.3563 9.92362C66.4261 9.92362 68.2696 10.2794 69.8867 10.9909C71.5361 11.7024 72.9268 12.6565 74.0588 13.8531C75.2231 15.0498 76.0963 16.4405 76.6784 18.0252C77.2929 19.6099 77.6002 21.2594 77.6002 22.9735C77.6002 23.3939 77.584 23.7982 77.5516 24.1863C77.5516 24.5744 77.5193 24.8978 77.4546 25.1565H57.8071C57.9041 26.1591 58.1467 27.0485 58.5348 27.8247C58.9229 28.6009 59.4242 29.2639 60.0387 29.8137C60.6531 30.3635 61.3485 30.784 62.1247 31.0751C62.9009 31.3661 63.7094 31.5117 64.5503 31.5117C65.844 31.5117 67.0568 31.2044 68.1887 30.5899C69.353 29.9431 70.1454 29.1022 70.5659 28.0673L76.1448 29.6197C75.2069 31.5602 73.703 33.1611 71.6331 34.4224C69.5956 35.6514 67.1538 36.2659 64.3077 36.2659ZM70.9054 20.936C70.7437 19.0278 70.0322 17.5077 68.7709 16.3758C67.5419 15.2115 66.038 14.6293 64.2592 14.6293C63.386 14.6293 62.5613 14.791 61.7851 15.1145C61.0412 15.4055 60.3782 15.826 59.7961 16.3758C59.2139 16.9256 58.7288 17.5886 58.3407 18.3648C57.985 19.141 57.7747 19.998 57.7101 20.936H70.9054ZM97.4725 36.2659C95.532 36.2659 93.8017 35.8293 92.2816 34.9561C90.7616 34.0828 89.5649 32.8862 88.6917 31.3661V35.7808H83.0157V0.366671H89.5164V14.8234C90.422 13.271 91.6024 12.0743 93.0578 11.2335C94.5455 10.3602 96.2758 9.92362 98.2487 9.92362C99.8981 9.92362 101.402 10.2794 102.76 10.9909C104.119 11.7024 105.283 12.6565 106.253 13.8531C107.256 15.0498 108.016 16.4566 108.533 18.0737C109.083 19.6908 109.358 21.3887 109.358 23.1675C109.358 25.011 109.051 26.7251 108.436 28.3098C107.854 29.8946 107.029 31.2853 105.962 32.4819C104.895 33.6462 103.634 34.568 102.178 35.2471C100.723 35.9263 99.1542 36.2659 97.4725 36.2659ZM95.6775 30.7355C96.7124 30.7355 97.6665 30.5414 98.5397 30.1533C99.4129 29.7329 100.157 29.1831 100.771 28.5039C101.386 27.8247 101.855 27.0323 102.178 26.1268C102.534 25.2212 102.712 24.251 102.712 23.216C102.712 22.1811 102.55 21.1947 102.227 20.2568C101.903 19.3189 101.434 18.4942 100.82 17.7826C100.238 17.0711 99.5423 16.5051 98.7338 16.0847C97.9252 15.6643 97.0358 15.454 96.0656 15.454C94.6102 15.454 93.3004 15.9392 92.1361 16.9094C91.0041 17.8473 90.1309 19.0116 89.5164 20.4023V26.4664C89.7428 27.1132 90.0662 27.6954 90.4867 28.2128C90.9394 28.7303 91.4407 29.1831 91.9905 29.5712C92.5404 29.9269 93.1387 30.218 93.7855 30.4444C94.4323 30.6384 95.063 30.7355 95.6775 30.7355Z" fill="#2196F3"/>
<path d="M149.479 10.3602C149.253 10.1338 148.832 9.8266 148.218 9.4385C147.635 9.0504 146.908 8.67847 146.035 8.32271C145.194 7.93461 144.272 7.6112 143.269 7.35246C142.267 7.09373 141.248 6.96436 140.213 6.96436C138.37 6.96436 136.995 7.30395 136.09 7.98313C135.184 8.6623 134.731 9.61638 134.731 10.8454C134.731 11.5569 134.893 12.1552 135.216 12.6403C135.572 13.0931 136.073 13.4974 136.72 13.8531C137.367 14.2089 138.176 14.5323 139.146 14.8234C140.148 15.1145 141.297 15.4217 142.59 15.7451C144.272 16.1979 145.792 16.683 147.15 17.2005C148.541 17.718 149.705 18.3648 150.643 19.141C151.613 19.9172 152.357 20.8551 152.875 21.9547C153.392 23.022 153.651 24.348 153.651 25.9327C153.651 27.7762 153.295 29.3609 152.584 30.687C151.905 31.9806 150.967 33.0317 149.77 33.8403C148.606 34.6488 147.247 35.2471 145.695 35.6352C144.175 35.991 142.574 36.1689 140.892 36.1689C138.305 36.1689 135.75 35.7808 133.227 35.0046C130.705 34.2284 128.441 33.1287 126.436 31.7057L129.395 25.9327C129.686 26.2238 130.203 26.6119 130.947 27.097C131.723 27.5498 132.629 28.0188 133.664 28.5039C134.699 28.9567 135.847 29.3448 137.108 29.6682C138.37 29.9916 139.663 30.1533 140.989 30.1533C144.676 30.1533 146.52 28.9728 146.52 26.6119C146.52 25.8681 146.309 25.2374 145.889 24.7199C145.469 24.2025 144.87 23.7497 144.094 23.3616C143.318 22.9735 142.38 22.6177 141.28 22.2943C140.181 21.9709 138.952 21.6151 137.593 21.227C135.944 20.7742 134.505 20.2891 133.276 19.7717C132.079 19.2218 131.077 18.5912 130.268 17.8797C129.459 17.1358 128.845 16.2949 128.425 15.357C128.036 14.3868 127.842 13.2386 127.842 11.9126C127.842 10.1662 128.166 8.61379 128.813 7.25544C129.459 5.89709 130.349 4.76513 131.481 3.85957C132.645 2.954 133.987 2.27483 135.507 1.82204C137.027 1.33692 138.661 1.09436 140.407 1.09436C142.833 1.09436 145.064 1.48246 147.102 2.25866C149.139 3.00251 150.918 3.89191 152.438 4.92684L149.479 10.3602ZM174.483 34.4709C173.61 34.859 172.543 35.2471 171.282 35.6352C170.02 36.0233 168.694 36.2174 167.303 36.2174C166.398 36.2174 165.541 36.1042 164.732 35.8778C163.956 35.6514 163.261 35.2956 162.646 34.8105C162.064 34.293 161.595 33.6462 161.239 32.87C160.884 32.0615 160.706 31.0912 160.706 29.9593V15.357H157.358V10.3602H160.706V2.11312H167.206V10.3602H172.543V15.357H167.206V27.7762C167.206 28.6818 167.433 29.3286 167.886 29.7167C168.371 30.0725 168.953 30.2503 169.632 30.2503C170.311 30.2503 170.974 30.1371 171.621 29.9108C172.268 29.6844 172.785 29.4903 173.173 29.3286L174.483 34.4709ZM187.086 36.2659C184.467 36.2659 182.478 35.425 181.119 33.7432C179.761 32.0615 179.082 29.5712 179.082 26.2723V10.3602H185.582V24.8655C185.582 28.7788 186.989 30.7355 189.803 30.7355C191.064 30.7355 192.277 30.3635 193.441 29.6197C194.638 28.8435 195.608 27.6792 196.352 26.1268V10.3602H202.853V28.3098C202.853 28.989 202.966 29.4741 203.192 29.7652C203.451 30.0563 203.855 30.218 204.405 30.2503V35.7808C203.758 35.9101 203.209 35.991 202.756 36.0233C202.335 36.0557 201.947 36.0718 201.592 36.0718C200.427 36.0718 199.473 35.8131 198.729 35.2956C198.018 34.7458 197.597 34.002 197.468 33.0641L197.322 31.0265C196.19 32.773 194.735 34.0828 192.956 34.9561C191.178 35.8293 189.221 36.2659 187.086 36.2659ZM221.296 36.2659C219.549 36.2659 217.932 35.9263 216.444 35.2471C214.957 34.568 213.679 33.63 212.612 32.4334C211.545 31.2368 210.704 29.8461 210.089 28.2613C209.507 26.6442 209.216 24.914 209.216 23.0705C209.216 21.227 209.491 19.5129 210.041 17.9282C210.623 16.3434 211.415 14.9527 212.418 13.7561C213.42 12.5595 214.617 11.6216 216.008 10.9424C217.398 10.2632 218.918 9.92362 220.568 9.92362C222.444 9.92362 224.125 10.3764 225.613 11.282C227.133 12.1875 228.314 13.368 229.155 14.8234V0.366671H235.655V28.3098C235.655 28.989 235.768 29.4741 235.995 29.7652C236.221 30.0563 236.609 30.218 237.159 30.2503V35.7808C236.027 36.0072 235.105 36.1203 234.394 36.1203C233.23 36.1203 232.276 35.8293 231.532 35.2471C230.788 34.665 230.367 33.9049 230.27 32.967L230.125 31.3661C229.187 32.9832 227.909 34.2122 226.292 35.0531C224.708 35.8616 223.042 36.2659 221.296 36.2659ZM222.993 30.7355C223.608 30.7355 224.239 30.6384 224.885 30.4444C225.532 30.218 226.131 29.9108 226.68 29.5227C227.23 29.1346 227.715 28.6818 228.136 28.1643C228.589 27.6468 228.928 27.0809 229.155 26.4664V20.4023C228.896 19.6908 228.524 19.044 228.039 18.4618C227.586 17.8473 227.052 17.3299 226.438 16.9094C225.856 16.4566 225.225 16.1009 224.546 15.8421C223.899 15.5834 223.252 15.454 222.605 15.454C221.635 15.454 220.73 15.6643 219.889 16.0847C219.08 16.5051 218.385 17.0873 217.803 17.8312C217.221 18.5427 216.768 19.3674 216.444 20.3053C216.121 21.2432 215.959 22.2134 215.959 23.216C215.959 24.2833 216.137 25.2697 216.493 26.1753C216.849 27.0809 217.334 27.8732 217.948 28.5524C218.563 29.2316 219.29 29.7652 220.131 30.1533C221.004 30.5414 221.959 30.7355 222.993 30.7355ZM243.492 35.7808V10.3602H249.992V35.7808H243.492ZM243.492 6.81883V0.366671H249.992V6.81883H243.492ZM269.052 36.2659C266.982 36.2659 265.122 35.9101 263.473 35.1986C261.824 34.4871 260.417 33.533 259.252 32.3364C258.12 31.1074 257.247 29.7005 256.633 28.1158C256.018 26.5311 255.711 24.8655 255.711 23.119C255.711 21.3402 256.018 19.6585 256.633 18.0737C257.247 16.489 258.12 15.0983 259.252 13.9016C260.417 12.6727 261.824 11.7024 263.473 10.9909C265.122 10.2794 266.982 9.92362 269.052 9.92362C271.122 9.92362 272.965 10.2794 274.582 10.9909C276.232 11.7024 277.622 12.6727 278.754 13.9016C279.919 15.0983 280.808 16.489 281.423 18.0737C282.037 19.6585 282.344 21.3402 282.344 23.119C282.344 24.8655 282.037 26.5311 281.423 28.1158C280.808 29.7005 279.935 31.1074 278.803 32.3364C277.671 33.533 276.28 34.4871 274.631 35.1986C272.981 35.9101 271.122 36.2659 269.052 36.2659ZM262.406 23.119C262.406 24.251 262.567 25.2859 262.891 26.2238C263.247 27.1294 263.716 27.9217 264.298 28.6009C264.912 29.2801 265.624 29.8137 266.432 30.2018C267.241 30.5576 268.114 30.7355 269.052 30.7355C269.99 30.7355 270.863 30.5576 271.672 30.2018C272.48 29.8137 273.175 29.2801 273.758 28.6009C274.372 27.9217 274.841 27.1132 275.164 26.1753C275.52 25.2374 275.698 24.2025 275.698 23.0705C275.698 21.9709 275.52 20.9521 275.164 20.0142C274.841 19.0763 274.372 18.2678 273.758 17.5886C273.175 16.9094 272.48 16.392 271.672 16.0362C270.863 15.6481 269.99 15.454 269.052 15.454C268.114 15.454 267.241 15.6481 266.432 16.0362C265.624 16.4243 264.912 16.9579 264.298 17.6371C263.716 18.3163 263.247 19.1248 262.891 20.0627C262.567 21.0006 262.406 22.0194 262.406 23.119Z" fill="black"/>
</svg>
